<?xml version="1.0" encoding="utf-8"?>
<!-- Generator: Adobe Illustrator 16.0.0, SVG Export Plug-In . SVG Version: 6.00 Build 0)  -->
<!DOCTYPE svg PUBLIC "-//W3C//DTD SVG 1.1//EN" "http://www.w3.org/Graphics/SVG/1.1/DTD/svg11.dtd">
<svg version="1.1" id="Layer_1" xmlns="http://www.w3.org/2000/svg" xmlns:xlink="http://www.w3.org/1999/xlink" x="0px" y="0px"
	 width="1526.924px" height="727.361px" viewBox="0 0 1526.924 727.361" enable-background="new 0 0 1526.924 727.361"
	 xml:space="preserve">
<circle fill="#39B54A" stroke="#464646" stroke-width="10" stroke-miterlimit="10" cx="210.369" cy="400.287" r="166"/>
<g>
	<path d="M88.37,611.146c0.5-1.2,1.232-2.482,2.2-3.85c0.966-1.366,2.191-2.642,3.675-3.825c1.482-1.183,3.232-2.158,5.25-2.925
		c2.016-0.767,4.325-1.15,6.925-1.15c2.833,0,5.45,0.518,7.85,1.55c2.4,1.034,4.466,2.426,6.2,4.176
		c1.733,1.75,3.083,3.792,4.05,6.125c0.966,2.333,1.45,4.783,1.45,7.35c0,2.567-0.483,5.018-1.45,7.35
		c-0.967,2.334-2.317,4.375-4.05,6.125c-1.733,1.75-3.8,3.143-6.2,4.176c-2.4,1.032-5.034,1.55-7.9,1.55
		c-2.9,0-5.55-0.534-7.95-1.601s-4.45-2.475-6.15-4.225c-1.7-1.75-3.017-3.75-3.95-6c-0.934-2.25-1.4-4.558-1.4-6.925
		c0-1.233,0.1-2.517,0.3-3.851C87.42,613.863,87.803,612.513,88.37,611.146z M96.37,618.496c0,1.434,0.232,2.809,0.7,4.125
		c0.466,1.316,1.142,2.483,2.025,3.5c0.883,1.017,1.95,1.833,3.2,2.449c1.25,0.617,2.675,0.926,4.275,0.926
		c1.667,0,3.125-0.342,4.375-1.025c1.25-0.683,2.283-1.558,3.1-2.625c0.816-1.066,1.433-2.232,1.85-3.5
		c0.417-1.267,0.625-2.5,0.625-3.7s-0.208-2.441-0.625-3.725c-0.417-1.283-1.034-2.467-1.85-3.55
		c-0.817-1.083-1.858-1.967-3.125-2.65c-1.267-0.683-2.75-1.025-4.45-1.025c-1.633,0-3.083,0.317-4.35,0.95
		c-1.268,0.634-2.325,1.468-3.175,2.5c-0.85,1.034-1.492,2.192-1.925,3.476C96.586,615.904,96.37,617.195,96.37,618.496z"/>
	<path d="M131.07,600.096h11.7c1.633,0,3.033,0.05,4.2,0.15c1.167,0.1,2.183,0.258,3.05,0.475c0.867,0.217,1.625,0.492,2.275,0.825
		c0.65,0.333,1.275,0.733,1.875,1.2c1.533,1.199,2.675,2.708,3.425,4.524c0.75,1.817,1.125,3.675,1.125,5.575
		c0,1.067-0.15,2.217-0.45,3.45c-0.3,1.233-0.809,2.408-1.525,3.524c-0.717,1.117-1.667,2.101-2.85,2.95
		c-1.184,0.851-2.642,1.425-4.375,1.726l10.05,12.6h-10.8l-8.55-11.95h-0.1v11.95h-9.05V600.096z M140.12,618.695h3.35
		c1.4,0,2.508-0.191,3.325-0.574c0.816-0.383,1.433-0.851,1.85-1.4c0.417-0.55,0.691-1.125,0.825-1.725
		c0.133-0.601,0.2-1.133,0.2-1.601c0-1.7-0.559-2.958-1.675-3.774c-1.117-0.816-2.592-1.226-4.425-1.226h-3.45V618.695z"/>
	<path d="M163.72,600.096h9.45v37h-9.45V600.096z"/>
	<path d="M217.62,616.046c0.033,0.333,0.05,0.649,0.05,0.95c0,0.3,0,0.633,0,1c0,3.1-0.55,5.875-1.65,8.324
		c-1.1,2.45-2.559,4.534-4.375,6.25c-1.817,1.718-3.917,3.025-6.3,3.926c-2.384,0.899-4.859,1.35-7.425,1.35
		c-2.8,0-5.4-0.509-7.8-1.525c-2.4-1.016-4.475-2.407-6.225-4.175c-1.75-1.767-3.125-3.825-4.125-6.175s-1.5-4.857-1.5-7.525
		c0-2.766,0.517-5.316,1.55-7.649s2.45-4.342,4.25-6.025c1.8-1.683,3.9-3,6.3-3.95c2.4-0.949,4.966-1.425,7.7-1.425
		c2.2,0,4.308,0.351,6.325,1.05c2.017,0.7,3.841,1.643,5.475,2.825c1.633,1.184,3.033,2.567,4.2,4.15c1.167,1.583,2,3.274,2.5,5.075
		h-10.6c-0.734-1.301-1.775-2.426-3.125-3.375c-1.35-0.95-3.025-1.426-5.025-1.426c-1.167,0-2.35,0.218-3.55,0.65
		c-1.2,0.434-2.284,1.092-3.25,1.975c-0.967,0.884-1.759,2-2.375,3.351c-0.617,1.35-0.925,2.942-0.925,4.774
		c0,1.934,0.308,3.601,0.925,5c0.616,1.4,1.417,2.551,2.4,3.45c0.983,0.9,2.075,1.567,3.275,2c1.2,0.434,2.383,0.65,3.55,0.65
		c2.366,0,4.308-0.542,5.825-1.625c1.517-1.083,2.525-2.525,3.025-4.325h-11.05v-7.55H217.62z"/>
	<path d="M222.569,600.096h9.45v37h-9.45V600.096z"/>
	<path d="M238.719,600.096h8.15l14.3,23.25l0.1-0.1l-0.4-23.15h9.05v37h-8.2l-14.1-22.5l-0.1,0.05l0.25,22.45h-9.05V600.096z"/>
	<path d="M285.868,631.746l-1.95,5.35h-10.15l14.85-37h7.45l14.7,37h-10.25l-1.8-5.35H285.868z M288.468,624.246h7.75l-3.8-12.65
		h-0.05h-0.1L288.468,624.246z"/>
	<path d="M314.818,600.096h9.45v28.7h10.95v8.3h-20.4V600.096z"/>
	<path d="M51.896,660.096h12.1c1.7,0,3.158,0.067,4.375,0.2c1.216,0.134,2.266,0.317,3.15,0.55c0.883,0.233,1.625,0.518,2.225,0.85
		c0.6,0.334,1.15,0.7,1.65,1.101c1.466,1.2,2.558,2.658,3.275,4.375c0.716,1.717,1.075,3.524,1.075,5.425
		c0,0.934-0.092,1.875-0.275,2.825c-0.184,0.95-0.45,1.85-0.8,2.7c-0.35,0.85-0.759,1.633-1.225,2.35
		c-0.467,0.717-1,1.325-1.6,1.825c-0.633,0.533-1.283,1-1.95,1.399c-0.667,0.4-1.417,0.734-2.25,1
		c-0.833,0.268-1.784,0.468-2.85,0.601c-1.067,0.134-2.317,0.2-3.75,0.2h-4.1v11.6h-9.05V660.096z M60.945,677.195h3.85
		c0.433,0,0.991-0.024,1.675-0.074c0.683-0.051,1.333-0.208,1.95-0.476c0.616-0.267,1.15-0.708,1.6-1.325
		c0.45-0.616,0.675-1.475,0.675-2.574c0-1.101-0.233-1.941-0.7-2.525c-0.467-0.583-1.025-1.008-1.675-1.275
		c-0.65-0.266-1.333-0.425-2.05-0.475c-0.717-0.05-1.325-0.075-1.825-0.075h-3.5V677.195z"/>
	<path d="M83.545,671.146c0.5-1.2,1.232-2.482,2.2-3.85c0.966-1.366,2.191-2.642,3.675-3.825c1.482-1.183,3.232-2.158,5.25-2.925
		c2.016-0.767,4.325-1.15,6.925-1.15c2.833,0,5.45,0.518,7.85,1.55c2.4,1.034,4.466,2.426,6.2,4.176
		c1.733,1.75,3.083,3.792,4.05,6.125c0.966,2.333,1.45,4.783,1.45,7.35c0,2.567-0.483,5.018-1.45,7.35
		c-0.967,2.334-2.317,4.375-4.05,6.125c-1.733,1.75-3.8,3.143-6.2,4.176c-2.4,1.032-5.034,1.55-7.9,1.55
		c-2.9,0-5.55-0.534-7.95-1.601s-4.45-2.475-6.15-4.225c-1.7-1.75-3.017-3.75-3.95-6c-0.934-2.25-1.4-4.558-1.4-6.925
		c0-1.233,0.1-2.517,0.3-3.851C82.595,673.863,82.978,672.513,83.545,671.146z M91.545,678.496c0,1.434,0.232,2.809,0.7,4.125
		c0.466,1.316,1.142,2.483,2.025,3.5c0.883,1.017,1.95,1.833,3.2,2.449c1.25,0.617,2.675,0.926,4.275,0.926
		c1.667,0,3.125-0.342,4.375-1.025c1.25-0.683,2.283-1.558,3.1-2.625c0.816-1.066,1.433-2.232,1.85-3.5
		c0.417-1.267,0.625-2.5,0.625-3.7s-0.208-2.441-0.625-3.725c-0.417-1.283-1.034-2.467-1.85-3.55
		c-0.817-1.083-1.858-1.967-3.125-2.65c-1.267-0.683-2.75-1.025-4.45-1.025c-1.633,0-3.083,0.317-4.35,0.95
		c-1.268,0.634-2.325,1.468-3.175,2.5c-0.85,1.034-1.492,2.192-1.925,3.476C91.761,675.904,91.545,677.195,91.545,678.496z"/>
	<path d="M126.245,660.096h12.1c1.7,0,3.158,0.067,4.375,0.2c1.216,0.134,2.266,0.317,3.15,0.55c0.883,0.233,1.625,0.518,2.225,0.85
		c0.6,0.334,1.15,0.7,1.65,1.101c1.466,1.2,2.558,2.658,3.275,4.375c0.716,1.717,1.075,3.524,1.075,5.425
		c0,0.934-0.092,1.875-0.275,2.825c-0.184,0.95-0.45,1.85-0.8,2.7c-0.35,0.85-0.759,1.633-1.225,2.35
		c-0.467,0.717-1,1.325-1.6,1.825c-0.633,0.533-1.283,1-1.95,1.399c-0.667,0.4-1.417,0.734-2.25,1
		c-0.833,0.268-1.784,0.468-2.85,0.601c-1.067,0.134-2.317,0.2-3.75,0.2h-4.1v11.6h-9.05V660.096z M135.294,677.195h3.85
		c0.433,0,0.991-0.024,1.675-0.074c0.683-0.051,1.333-0.208,1.95-0.476c0.616-0.267,1.15-0.708,1.6-1.325
		c0.45-0.616,0.675-1.475,0.675-2.574c0-1.101-0.233-1.941-0.7-2.525c-0.467-0.583-1.025-1.008-1.675-1.275
		c-0.65-0.266-1.333-0.425-2.05-0.475c-0.717-0.05-1.325-0.075-1.825-0.075h-3.5V677.195z"/>
	<path d="M167.394,660.096v22.35c0,0.634,0.033,1.359,0.1,2.176c0.066,0.816,0.25,1.583,0.55,2.3c0.3,0.717,0.775,1.325,1.425,1.825
		s1.558,0.75,2.725,0.75c1.167,0,2.066-0.226,2.7-0.676c0.633-0.449,1.1-1.024,1.4-1.725c0.3-0.7,0.475-1.467,0.525-2.3
		s0.075-1.616,0.075-2.351v-22.35h9.45v22.35c0,1.567-0.083,2.926-0.25,4.075c-0.167,1.15-0.409,2.159-0.725,3.025
		c-0.317,0.867-0.7,1.642-1.15,2.325c-0.45,0.684-0.975,1.324-1.575,1.925c-1.2,1.233-2.65,2.208-4.35,2.925
		c-1.7,0.717-3.7,1.075-6,1.075c-0.667,0-1.458-0.05-2.375-0.15c-0.917-0.1-1.859-0.292-2.825-0.575
		c-0.967-0.282-1.925-0.683-2.875-1.199c-0.95-0.517-1.809-1.191-2.575-2.025c-0.768-0.833-1.393-1.642-1.875-2.425
		c-0.484-0.783-0.859-1.608-1.125-2.476c-0.268-0.866-0.45-1.824-0.55-2.875c-0.1-1.05-0.15-2.258-0.15-3.625v-22.35H167.394z"/>
	<path d="M193.194,660.096h9.45v28.7h10.95v8.3h-20.4V660.096z"/>
	<path d="M226.494,691.746l-1.95,5.35h-10.15l14.85-37h7.45l14.7,37h-10.25l-1.8-5.35H226.494z M229.094,684.246h7.75l-3.8-12.65
		h-0.05h-0.1L229.094,684.246z"/>
	<path d="M258.394,668.396h-7.3v-8.3h24v8.3h-7.25v28.7h-9.45V668.396z"/>
	<path d="M278.894,660.096h9.45v37h-9.45V660.096z"/>
	<path d="M294.894,671.146c0.5-1.2,1.232-2.482,2.2-3.85c0.966-1.366,2.191-2.642,3.675-3.825c1.482-1.183,3.232-2.158,5.25-2.925
		c2.016-0.767,4.325-1.15,6.925-1.15c2.833,0,5.45,0.518,7.85,1.55c2.4,1.034,4.466,2.426,6.2,4.176
		c1.733,1.75,3.083,3.792,4.05,6.125c0.966,2.333,1.45,4.783,1.45,7.35c0,2.567-0.483,5.018-1.45,7.35
		c-0.967,2.334-2.317,4.375-4.05,6.125c-1.733,1.75-3.8,3.143-6.2,4.176c-2.4,1.032-5.034,1.55-7.9,1.55
		c-2.9,0-5.55-0.534-7.95-1.601s-4.45-2.475-6.15-4.225c-1.7-1.75-3.017-3.75-3.95-6c-0.934-2.25-1.4-4.558-1.4-6.925
		c0-1.233,0.1-2.517,0.3-3.851C293.944,673.863,294.327,672.513,294.894,671.146z M302.894,678.496c0,1.434,0.232,2.809,0.7,4.125
		c0.466,1.316,1.142,2.483,2.025,3.5c0.883,1.017,1.95,1.833,3.2,2.449c1.25,0.617,2.675,0.926,4.275,0.926
		c1.667,0,3.125-0.342,4.375-1.025c1.25-0.683,2.283-1.558,3.1-2.625c0.816-1.066,1.433-2.232,1.85-3.5
		c0.417-1.267,0.625-2.5,0.625-3.7s-0.208-2.441-0.625-3.725c-0.417-1.283-1.034-2.467-1.85-3.55
		c-0.817-1.083-1.858-1.967-3.125-2.65c-1.267-0.683-2.75-1.025-4.45-1.025c-1.633,0-3.083,0.317-4.35,0.95
		c-1.268,0.634-2.325,1.468-3.175,2.5c-0.85,1.034-1.492,2.192-1.925,3.476C303.11,675.904,302.894,677.195,302.894,678.496z"/>
	<path d="M337.594,660.096h8.15l14.3,23.25l0.1-0.1l-0.4-23.15h9.05v37h-8.2l-14.1-22.5l-0.1,0.05l0.25,22.45h-9.05V660.096z"/>
</g>
<circle fill="#39B54A" stroke="#464646" stroke-width="10" stroke-miterlimit="10" cx="639.369" cy="400.287" r="166"/>
<circle fill="#39B54A" stroke="#464646" stroke-width="10" stroke-miterlimit="10" cx="1149.673" cy="400.287" r="166"/>
<circle fill="#0072BC" stroke="#464646" stroke-width="10" stroke-miterlimit="10" cx="1396.223" cy="234.287" r="80.55"/>
<circle fill="#39B54A" stroke="#464646" stroke-width="10" stroke-miterlimit="10" cx="864.919" cy="234.287" r="59.551"/>
<g>
	<path d="M504.396,616.045c0.033,0.334,0.05,0.65,0.05,0.95s0,0.634,0,1c0,3.101-0.55,5.875-1.65,8.325
		c-1.1,2.449-2.559,4.533-4.375,6.25c-1.817,1.717-3.917,3.025-6.3,3.926c-2.384,0.898-4.859,1.35-7.425,1.35
		c-2.8,0-5.4-0.51-7.8-1.525s-4.475-2.408-6.225-4.176c-1.75-1.766-3.125-3.824-4.125-6.174c-1-2.351-1.5-4.858-1.5-7.525
		c0-2.767,0.517-5.316,1.55-7.65c1.033-2.332,2.45-4.342,4.25-6.025c1.8-1.682,3.9-3,6.3-3.949c2.4-0.95,4.966-1.426,7.7-1.426
		c2.2,0,4.308,0.351,6.325,1.051c2.017,0.699,3.841,1.643,5.475,2.824c1.633,1.184,3.033,2.568,4.2,4.15
		c1.167,1.584,2,3.275,2.5,5.075h-10.6c-0.734-1.3-1.775-2.425-3.125-3.375c-1.35-0.95-3.025-1.425-5.025-1.425
		c-1.167,0-2.35,0.217-3.55,0.65s-2.284,1.092-3.25,1.975c-0.967,0.883-1.759,2-2.375,3.35c-0.617,1.35-0.925,2.942-0.925,4.775
		c0,1.934,0.308,3.6,0.925,5c0.616,1.4,1.417,2.55,2.4,3.449c0.983,0.9,2.075,1.568,3.275,2c1.2,0.434,2.383,0.65,3.55,0.65
		c2.366,0,4.308-0.541,5.825-1.625c1.517-1.082,2.525-2.525,3.025-4.324h-11.05v-7.551H504.396z"/>
	<path d="M509.345,600.096h20.55v8.299h-11.5v5.75h11.15v8.301h-11.15v6.35h11.5v8.301h-20.55V600.096z"/>
	<path d="M535.595,611.145c0.5-1.199,1.232-2.482,2.2-3.85c0.966-1.366,2.191-2.641,3.675-3.824c1.482-1.184,3.232-2.158,5.25-2.926
		c2.016-0.766,4.325-1.15,6.925-1.15c2.833,0,5.45,0.518,7.85,1.551s4.466,2.425,6.2,4.175c1.733,1.75,3.083,3.792,4.05,6.125
		c0.966,2.333,1.45,4.784,1.45,7.351s-0.483,5.017-1.45,7.35c-0.967,2.334-2.317,4.375-4.05,6.125c-1.733,1.75-3.8,3.143-6.2,4.176
		c-2.4,1.031-5.034,1.549-7.9,1.549c-2.9,0-5.55-0.533-7.95-1.6s-4.45-2.475-6.15-4.225c-1.7-1.75-3.017-3.75-3.95-6
		c-0.934-2.25-1.4-4.559-1.4-6.926c0-1.232,0.1-2.516,0.3-3.85C534.645,613.862,535.027,612.512,535.595,611.145z M543.595,618.495
		c0,1.434,0.232,2.809,0.7,4.125c0.466,1.317,1.142,2.483,2.025,3.5c0.883,1.017,1.95,1.833,3.2,2.45s2.675,0.925,4.275,0.925
		c1.667,0,3.125-0.341,4.375-1.024s2.283-1.559,3.1-2.625c0.816-1.066,1.433-2.233,1.85-3.5c0.417-1.268,0.625-2.5,0.625-3.701
		c0-1.199-0.208-2.441-0.625-3.725c-0.417-1.283-1.034-2.467-1.85-3.55c-0.817-1.083-1.858-1.966-3.125-2.649
		c-1.267-0.684-2.75-1.025-4.45-1.025c-1.633,0-3.083,0.316-4.35,0.949c-1.268,0.635-2.325,1.468-3.175,2.5
		c-0.85,1.034-1.492,2.193-1.925,3.476C543.811,615.904,543.595,617.195,543.595,618.495z"/>
	<path d="M616.044,616.045c0.033,0.334,0.05,0.65,0.05,0.95s0,0.634,0,1c0,3.101-0.55,5.875-1.65,8.325
		c-1.1,2.449-2.559,4.533-4.375,6.25c-1.817,1.717-3.917,3.025-6.3,3.926c-2.384,0.898-4.859,1.35-7.425,1.35
		c-2.8,0-5.4-0.51-7.8-1.525s-4.475-2.408-6.225-4.176c-1.75-1.766-3.125-3.824-4.125-6.174c-1-2.351-1.5-4.858-1.5-7.525
		c0-2.767,0.517-5.316,1.55-7.65c1.033-2.332,2.45-4.342,4.25-6.025c1.8-1.682,3.9-3,6.3-3.949c2.4-0.95,4.966-1.426,7.7-1.426
		c2.2,0,4.308,0.351,6.325,1.051c2.017,0.699,3.841,1.643,5.475,2.824c1.633,1.184,3.033,2.568,4.2,4.15
		c1.167,1.584,2,3.275,2.5,5.075h-10.6c-0.734-1.3-1.775-2.425-3.125-3.375c-1.35-0.95-3.025-1.425-5.025-1.425
		c-1.167,0-2.35,0.217-3.55,0.65s-2.284,1.092-3.25,1.975c-0.967,0.883-1.759,2-2.375,3.35c-0.617,1.35-0.925,2.942-0.925,4.775
		c0,1.934,0.308,3.6,0.925,5c0.616,1.4,1.417,2.55,2.4,3.449c0.983,0.9,2.075,1.568,3.275,2c1.2,0.434,2.383,0.65,3.55,0.65
		c2.366,0,4.308-0.541,5.825-1.625c1.517-1.082,2.525-2.525,3.025-4.324h-11.05v-7.551H616.044z"/>
	<path d="M620.994,600.096h11.7c1.633,0,3.033,0.049,4.2,0.149c1.167,0.101,2.183,0.259,3.05,0.476
		c0.867,0.217,1.625,0.492,2.275,0.824c0.65,0.334,1.275,0.734,1.875,1.2c1.533,1.2,2.675,2.708,3.425,4.524
		c0.75,1.818,1.125,3.676,1.125,5.576c0,1.066-0.15,2.217-0.45,3.449c-0.3,1.234-0.809,2.408-1.525,3.525
		c-0.717,1.117-1.667,2.1-2.85,2.949c-1.184,0.851-2.642,1.426-4.375,1.726l10.05,12.601h-10.8l-8.55-11.951h-0.1v11.951h-9.05
		V600.096z M630.043,618.695h3.35c1.4,0,2.508-0.191,3.325-0.575c0.816-0.383,1.433-0.851,1.85-1.399
		c0.417-0.551,0.691-1.125,0.825-1.726c0.133-0.601,0.2-1.133,0.2-1.601c0-1.699-0.559-2.957-1.675-3.774
		c-1.117-0.816-2.592-1.226-4.425-1.226h-3.45V618.695z"/>
	<path d="M662.843,631.745l-1.95,5.351h-10.15l14.85-37h7.45l14.7,37h-10.25l-1.8-5.351H662.843z M665.443,624.245h7.75l-3.8-12.649
		h-0.05h-0.1L665.443,624.245z"/>
	<path d="M691.543,600.096h12.1c1.7,0,3.158,0.066,4.375,0.199c1.216,0.134,2.266,0.317,3.15,0.551
		c0.883,0.232,1.625,0.517,2.225,0.85c0.6,0.334,1.15,0.699,1.65,1.1c1.466,1.2,2.558,2.658,3.275,4.375
		c0.716,1.717,1.075,3.525,1.075,5.426c0,0.934-0.092,1.875-0.275,2.824c-0.184,0.95-0.45,1.85-0.8,2.7s-0.759,1.634-1.225,2.351
		c-0.467,0.717-1,1.324-1.6,1.824c-0.633,0.533-1.283,1-1.95,1.4c-0.667,0.4-1.417,0.733-2.25,1c-0.833,0.268-1.784,0.467-2.85,0.6
		c-1.067,0.134-2.317,0.2-3.75,0.2h-4.1v11.601h-9.05V600.096z M700.593,617.195h3.85c0.433,0,0.991-0.025,1.675-0.075
		c0.683-0.05,1.333-0.208,1.95-0.476c0.616-0.266,1.15-0.707,1.6-1.324c0.45-0.617,0.675-1.475,0.675-2.575s-0.233-1.941-0.7-2.524
		c-0.467-0.584-1.025-1.008-1.675-1.275c-0.65-0.267-1.333-0.426-2.05-0.475c-0.717-0.051-1.325-0.076-1.825-0.076h-3.5V617.195z"/>
	<path d="M723.343,600.096h9.45v13.899h12.1v-13.899h9.45v37h-9.45v-14.801h-12.1v14.801h-9.45V600.096z"/>
	<path d="M761.042,600.096h9.45v37h-9.45V600.096z"/>
	<path d="M813.893,623.245c-0.533,2.2-1.393,4.192-2.575,5.976c-1.184,1.783-2.593,3.309-4.226,4.574
		c-1.633,1.268-3.467,2.25-5.5,2.951c-2.034,0.699-4.167,1.049-6.4,1.049c-2.9,0-5.55-0.533-7.95-1.6s-4.45-2.492-6.15-4.275
		s-3.025-3.832-3.975-6.15c-0.95-2.316-1.425-4.725-1.425-7.225c0-2.366,0.441-4.691,1.325-6.975
		c0.883-2.283,2.158-4.325,3.825-6.125c1.667-1.801,3.7-3.258,6.1-4.375s5.116-1.676,8.15-1.676c2.9,0,5.466,0.5,7.7,1.5
		c2.232,1,4.125,2.234,5.674,3.701c1.551,1.467,2.775,3.066,3.676,4.799c0.9,1.734,1.482,3.318,1.75,4.75h-9.9
		c-0.267-0.699-0.642-1.424-1.125-2.174c-0.483-0.75-1.092-1.441-1.825-2.076c-0.734-0.633-1.6-1.157-2.6-1.574
		c-1-0.416-2.134-0.625-3.4-0.625c-1.6,0-3.009,0.316-4.225,0.949c-1.217,0.635-2.25,1.459-3.1,2.476s-1.492,2.175-1.925,3.476
		c-0.434,1.299-0.65,2.6-0.65,3.899c0,1.399,0.233,2.759,0.7,4.075c0.466,1.316,1.125,2.492,1.975,3.525s1.891,1.857,3.125,2.475
		c1.233,0.617,2.616,0.925,4.15,0.925c1.466,0,2.733-0.267,3.8-0.8c1.066-0.533,1.95-1.15,2.65-1.85
		c0.7-0.701,1.241-1.393,1.625-2.076c0.383-0.682,0.658-1.191,0.825-1.524H813.893z"/>
	<path d="M507.745,660.096h9.45v37h-9.45V660.096z"/>
	<path d="M538.395,670.895c-0.067-0.299-0.142-0.656-0.225-1.074c-0.083-0.416-0.242-0.816-0.475-1.199
		c-0.233-0.383-0.559-0.701-0.975-0.951c-0.417-0.25-0.992-0.375-1.725-0.375c-0.834,0-1.584,0.268-2.25,0.801
		c-0.667,0.533-1,1.232-1,2.1c0,0.566,0.083,1.033,0.25,1.4c0.166,0.367,0.525,0.742,1.075,1.125
		c0.55,0.383,1.325,0.816,2.325,1.299c1,0.484,2.333,1.094,4,1.826c1.733,0.768,3.158,1.549,4.275,2.35
		c1.116,0.801,2,1.633,2.65,2.5s1.1,1.775,1.35,2.725c0.25,0.951,0.375,1.959,0.375,3.025c0,1.367-0.217,2.725-0.65,4.074
		c-0.434,1.352-1.15,2.559-2.15,3.625c-1,1.068-2.325,1.943-3.975,2.625c-1.65,0.684-3.692,1.025-6.125,1.025
		c-2.667,0-4.867-0.393-6.6-1.174c-1.733-0.783-3.1-1.758-4.1-2.926c-1-1.166-1.692-2.434-2.075-3.801
		c-0.384-1.365-0.575-2.648-0.575-3.85v-1.199h9.4c0,1.066,0.142,1.934,0.425,2.6c0.283,0.668,0.633,1.184,1.05,1.551
		c0.417,0.367,0.841,0.607,1.275,0.725c0.433,0.117,0.8,0.174,1.1,0.174c1.133,0,2.017-0.375,2.65-1.125
		c0.633-0.75,0.95-1.557,0.95-2.424c0-0.6-0.109-1.117-0.325-1.551c-0.217-0.432-0.6-0.832-1.15-1.199s-1.292-0.758-2.225-1.176
		c-0.934-0.416-2.117-0.924-3.55-1.525c-0.667-0.266-1.509-0.641-2.525-1.125c-1.018-0.482-2.009-1.133-2.975-1.949
		c-0.967-0.816-1.8-1.842-2.5-3.074c-0.7-1.234-1.05-2.717-1.05-4.451c0-1.732,0.383-3.275,1.15-4.625
		c0.766-1.35,1.766-2.49,3-3.424c1.232-0.934,2.616-1.643,4.15-2.125c1.533-0.484,3.083-0.727,4.65-0.727
		c1.833,0,3.658,0.344,5.475,1.025c1.816,0.684,3.325,1.742,4.525,3.176c0.533,0.666,0.958,1.324,1.275,1.975
		c0.316,0.65,0.558,1.283,0.725,1.9c0.167,0.617,0.275,1.209,0.325,1.775c0.05,0.566,0.091,1.117,0.125,1.648H538.395z"/>
	<path d="M552.395,671.145c0.5-1.199,1.232-2.482,2.2-3.85c0.966-1.365,2.191-2.641,3.675-3.824c1.482-1.184,3.232-2.158,5.25-2.926
		c2.016-0.766,4.325-1.15,6.925-1.15c2.833,0,5.45,0.518,7.85,1.551s4.466,2.426,6.2,4.176c1.733,1.75,3.083,3.791,4.05,6.125
		c0.966,2.332,1.45,4.783,1.45,7.35s-0.483,5.018-1.45,7.35c-0.967,2.334-2.317,4.375-4.05,6.125c-1.733,1.75-3.8,3.143-6.2,4.176
		c-2.4,1.031-5.034,1.549-7.9,1.549c-2.9,0-5.55-0.533-7.95-1.6s-4.45-2.475-6.15-4.225c-1.7-1.75-3.017-3.75-3.95-6
		c-0.934-2.25-1.4-4.559-1.4-6.926c0-1.232,0.1-2.516,0.3-3.85C551.444,673.863,551.827,672.512,552.395,671.145z M560.395,678.496
		c0,1.434,0.232,2.809,0.7,4.125c0.466,1.316,1.142,2.482,2.025,3.5c0.883,1.016,1.95,1.832,3.2,2.449s2.675,0.926,4.275,0.926
		c1.667,0,3.125-0.342,4.375-1.025s2.283-1.559,3.1-2.625c0.816-1.066,1.433-2.232,1.85-3.5c0.417-1.268,0.625-2.5,0.625-3.701
		c0-1.199-0.208-2.441-0.625-3.725c-0.417-1.283-1.034-2.467-1.85-3.549c-0.817-1.084-1.858-1.967-3.125-2.65
		c-1.267-0.684-2.75-1.025-4.45-1.025c-1.633,0-3.083,0.316-4.35,0.949c-1.268,0.635-2.325,1.469-3.175,2.5
		c-0.85,1.035-1.492,2.193-1.925,3.477C560.611,675.904,560.395,677.195,560.395,678.496z"/>
	<path d="M595.344,660.096h9.45v28.699h10.95v8.301h-20.4V660.096z"/>
	<path d="M628.644,691.746l-1.95,5.35h-10.15l14.85-37h7.45l14.7,37h-10.25l-1.8-5.35H628.644z M631.244,684.246h7.75l-3.8-12.65
		h-0.05h-0.1L631.244,684.246z"/>
	<path d="M660.544,668.395h-7.3v-8.299h24v8.299h-7.25v28.701h-9.45V668.395z"/>
	<path d="M681.044,660.096h9.45v37h-9.45V660.096z"/>
	<path d="M697.044,671.145c0.5-1.199,1.232-2.482,2.2-3.85c0.966-1.365,2.191-2.641,3.675-3.824c1.482-1.184,3.232-2.158,5.25-2.926
		c2.016-0.766,4.325-1.15,6.925-1.15c2.833,0,5.45,0.518,7.85,1.551s4.466,2.426,6.2,4.176c1.733,1.75,3.083,3.791,4.05,6.125
		c0.966,2.332,1.45,4.783,1.45,7.35s-0.483,5.018-1.45,7.35c-0.967,2.334-2.317,4.375-4.05,6.125c-1.733,1.75-3.8,3.143-6.2,4.176
		c-2.4,1.031-5.034,1.549-7.9,1.549c-2.9,0-5.55-0.533-7.95-1.6s-4.45-2.475-6.15-4.225c-1.7-1.75-3.017-3.75-3.95-6
		c-0.934-2.25-1.4-4.559-1.4-6.926c0-1.232,0.1-2.516,0.3-3.85C696.094,673.863,696.477,672.512,697.044,671.145z M705.044,678.496
		c0,1.434,0.232,2.809,0.7,4.125c0.466,1.316,1.142,2.482,2.025,3.5c0.883,1.016,1.95,1.832,3.2,2.449s2.675,0.926,4.275,0.926
		c1.667,0,3.125-0.342,4.375-1.025s2.283-1.559,3.1-2.625c0.816-1.066,1.433-2.232,1.85-3.5c0.417-1.268,0.625-2.5,0.625-3.701
		c0-1.199-0.208-2.441-0.625-3.725c-0.417-1.283-1.034-2.467-1.85-3.549c-0.817-1.084-1.858-1.967-3.125-2.65
		c-1.267-0.684-2.75-1.025-4.45-1.025c-1.633,0-3.083,0.316-4.35,0.949c-1.268,0.635-2.325,1.469-3.175,2.5
		c-0.85,1.035-1.492,2.193-1.925,3.477C705.261,675.904,705.044,677.195,705.044,678.496z"/>
	<path d="M739.744,660.096h8.15l14.3,23.25l0.1-0.1l-0.4-23.15h9.05v37h-8.2l-14.1-22.5l-0.1,0.049l0.25,22.451h-9.05V660.096z"/>
</g>
<g>
	<path d="M1016.1,610.895c-0.068-0.299-0.143-0.657-0.226-1.074c-0.083-0.416-0.242-0.816-0.476-1.2
		c-0.232-0.383-0.559-0.7-0.975-0.95c-0.417-0.25-0.992-0.375-1.725-0.375c-0.834,0-1.584,0.268-2.25,0.801
		c-0.668,0.533-1,1.232-1,2.1c0,0.566,0.082,1.033,0.25,1.4c0.166,0.367,0.525,0.742,1.074,1.125
		c0.551,0.383,1.326,0.816,2.326,1.299c1,0.484,2.332,1.093,4,1.826c1.732,0.767,3.157,1.549,4.274,2.35
		c1.116,0.8,2,1.633,2.649,2.5c0.65,0.867,1.101,1.775,1.351,2.725c0.25,0.95,0.375,1.959,0.375,3.025
		c0,1.367-0.218,2.725-0.649,4.074c-0.434,1.351-1.15,2.559-2.15,3.625c-1,1.068-2.325,1.943-3.975,2.625
		c-1.65,0.684-3.693,1.025-6.125,1.025c-2.668,0-4.867-0.393-6.601-1.174c-1.733-0.783-3.101-1.758-4.101-2.926
		c-1-1.166-1.691-2.434-2.074-3.801c-0.384-1.365-0.575-2.649-0.575-3.85v-1.199h9.399c0,1.066,0.143,1.934,0.426,2.6
		c0.283,0.667,0.633,1.184,1.05,1.55c0.417,0.367,0.841,0.608,1.274,0.726s0.801,0.174,1.101,0.174c1.133,0,2.017-0.375,2.649-1.125
		s0.951-1.557,0.951-2.424c0-0.601-0.109-1.117-0.326-1.551c-0.217-0.433-0.6-0.832-1.149-1.199s-1.292-0.758-2.226-1.176
		c-0.934-0.416-2.117-0.925-3.549-1.525c-0.668-0.266-1.51-0.641-2.525-1.125c-1.018-0.482-2.009-1.133-2.975-1.949
		c-0.968-0.816-1.801-1.842-2.5-3.075c-0.701-1.233-1.051-2.716-1.051-4.45c0-1.732,0.383-3.275,1.15-4.625
		c0.766-1.35,1.766-2.491,3-3.425c1.232-0.933,2.616-1.642,4.15-2.125c1.532-0.483,3.082-0.726,4.649-0.726
		c1.833,0,3.657,0.343,5.476,1.025c1.816,0.684,3.324,1.742,4.524,3.176c0.532,0.666,0.958,1.324,1.274,1.975s0.559,1.283,0.726,1.9
		s0.274,1.208,0.325,1.774c0.05,0.567,0.092,1.117,0.125,1.649H1016.1z"/>
	<path d="M1030.249,600.096h12.101c1.699,0,3.157,0.066,4.375,0.199c1.216,0.134,2.266,0.317,3.149,0.551
		c0.883,0.232,1.625,0.517,2.226,0.85c0.6,0.334,1.149,0.699,1.649,1.1c1.466,1.2,2.558,2.658,3.274,4.375s1.076,3.525,1.076,5.426
		c0,0.934-0.093,1.875-0.275,2.824c-0.184,0.95-0.45,1.85-0.801,2.7c-0.35,0.851-0.758,1.634-1.225,2.351s-1,1.324-1.6,1.824
		c-0.634,0.533-1.283,1-1.95,1.4s-1.417,0.733-2.25,1c-0.833,0.268-1.784,0.467-2.851,0.6c-1.066,0.134-2.316,0.2-3.75,0.2h-4.1
		v11.601h-9.05V600.096z M1039.299,617.195h3.85c0.434,0,0.992-0.025,1.676-0.075c0.683-0.05,1.332-0.208,1.949-0.476
		c0.617-0.266,1.15-0.707,1.601-1.324s0.675-1.475,0.675-2.575s-0.233-1.941-0.699-2.524c-0.468-0.584-1.025-1.008-1.676-1.275
		c-0.65-0.267-1.334-0.426-2.05-0.475c-0.718-0.051-1.325-0.076-1.825-0.076h-3.5V617.195z"/>
	<path d="M1062.049,600.096h20.549v8.299h-11.5v5.75h11.15v8.301h-11.15v6.35h11.5v8.301h-20.549V600.096z"/>
	<path d="M1125.148,623.245c-0.533,2.2-1.393,4.192-2.575,5.976c-1.184,1.783-2.593,3.309-4.226,4.574
		c-1.633,1.268-3.467,2.25-5.5,2.951c-2.033,0.699-4.166,1.049-6.399,1.049c-2.899,0-5.55-0.533-7.95-1.6s-4.449-2.492-6.15-4.275
		c-1.699-1.783-3.024-3.832-3.975-6.15c-0.949-2.316-1.425-4.725-1.425-7.225c0-2.366,0.441-4.691,1.325-6.975
		c0.883-2.283,2.158-4.325,3.824-6.125c1.667-1.801,3.701-3.258,6.101-4.375s5.116-1.676,8.149-1.676c2.9,0,5.467,0.5,7.701,1.5
		c2.232,1,4.125,2.234,5.674,3.701c1.551,1.467,2.775,3.066,3.676,4.799c0.9,1.734,1.482,3.318,1.75,4.75h-9.9
		c-0.268-0.699-0.643-1.424-1.125-2.174c-0.483-0.75-1.092-1.441-1.824-2.076c-0.734-0.633-1.601-1.157-2.601-1.574
		c-1-0.416-2.134-0.625-3.399-0.625c-1.601,0-3.01,0.316-4.226,0.949c-1.218,0.635-2.25,1.459-3.101,2.476
		c-0.85,1.017-1.492,2.175-1.924,3.476c-0.434,1.299-0.65,2.6-0.65,3.899c0,1.399,0.232,2.759,0.699,4.075s1.125,2.492,1.976,3.525
		s1.892,1.857,3.125,2.475s2.616,0.925,4.149,0.925c1.467,0,2.733-0.267,3.801-0.8c1.066-0.533,1.949-1.15,2.65-1.85
		c0.699-0.701,1.24-1.393,1.625-2.076c0.383-0.682,0.657-1.191,0.824-1.524H1125.148z"/>
	<path d="M1130.047,600.096h9.45v37h-9.45V600.096z"/>
	<path d="M1155.397,631.745l-1.95,5.351h-10.149l14.85-37h7.45l14.7,37h-10.25l-1.8-5.351H1155.397z M1157.998,624.245h7.75
		l-3.801-12.649h-0.05h-0.1L1157.998,624.245z"/>
	<path d="M1187.297,608.395h-7.299v-8.299h24v8.299h-7.25v28.701h-9.451V608.395z"/>
	<path d="M1207.797,600.096h9.45v37h-9.45V600.096z"/>
	<path d="M1223.797,611.145c0.5-1.199,1.232-2.482,2.2-3.85c0.966-1.366,2.191-2.641,3.675-3.824
		c1.482-1.184,3.232-2.158,5.25-2.926c2.017-0.766,4.325-1.15,6.926-1.15c2.832,0,5.449,0.518,7.85,1.551s4.467,2.425,6.199,4.175
		c1.733,1.75,3.084,3.792,4.051,6.125s1.449,4.784,1.449,7.351s-0.482,5.017-1.449,7.35c-0.967,2.334-2.317,4.375-4.051,6.125
		c-1.732,1.75-3.799,3.143-6.199,4.176c-2.4,1.031-5.033,1.549-7.9,1.549c-2.9,0-5.55-0.533-7.949-1.6
		c-2.4-1.066-4.451-2.475-6.15-4.225c-1.7-1.75-3.018-3.75-3.95-6c-0.934-2.25-1.399-4.559-1.399-6.926
		c0-1.232,0.1-2.516,0.299-3.85C1222.848,613.862,1223.23,612.512,1223.797,611.145z M1231.797,618.495
		c0,1.434,0.232,2.809,0.7,4.125c0.466,1.317,1.142,2.483,2.024,3.5s1.951,1.833,3.201,2.45s2.674,0.925,4.274,0.925
		c1.667,0,3.125-0.341,4.375-1.024s2.282-1.559,3.101-2.625c0.816-1.066,1.432-2.233,1.85-3.5c0.416-1.268,0.625-2.5,0.625-3.701
		c0-1.199-0.209-2.441-0.625-3.725c-0.418-1.283-1.033-2.467-1.85-3.55c-0.818-1.083-1.859-1.966-3.125-2.649
		c-1.268-0.684-2.75-1.025-4.451-1.025c-1.633,0-3.083,0.316-4.35,0.949c-1.268,0.635-2.324,1.468-3.175,2.5
		c-0.851,1.034-1.492,2.193-1.925,3.476C1232.014,615.904,1231.797,617.195,1231.797,618.495z"/>
	<path d="M1266.497,600.096h8.149l14.301,23.25l0.1-0.101l-0.4-23.149h9.051v37h-8.2l-14.101-22.5l-0.1,0.049l0.25,22.451h-9.05
		V600.096z"/>
</g>
<polygon points="1476.076,70.848 1396.223,24.748 1396.223,49.85 78.869,49.85 79.036,91.848 1396.223,91.848 1396.223,116.95 "/>
<g>
	<path d="M387.185,133.195h8.47c1.19,0,2.21,0.047,3.062,0.14c0.852,0.093,1.586,0.222,2.205,0.385
		c0.618,0.164,1.138,0.362,1.558,0.595s0.805,0.49,1.155,0.77c1.026,0.84,1.791,1.861,2.292,3.062
		c0.501,1.202,0.752,2.467,0.752,3.797c0,0.653-0.064,1.312-0.192,1.978c-0.128,0.665-0.315,1.295-0.56,1.89
		c-0.245,0.595-0.531,1.144-0.857,1.645c-0.327,0.502-0.7,0.928-1.12,1.278c-0.443,0.374-0.898,0.7-1.365,0.98
		c-0.467,0.28-0.992,0.513-1.575,0.7c-0.583,0.187-1.249,0.327-1.995,0.42c-0.747,0.093-1.622,0.14-2.625,0.14h-2.87v8.12h-6.335
		V133.195z M393.52,145.165h2.695c0.303,0,0.694-0.017,1.172-0.052c0.478-0.035,0.933-0.146,1.365-0.333
		c0.431-0.187,0.805-0.496,1.12-0.928c0.315-0.431,0.472-1.032,0.472-1.802s-0.164-1.359-0.49-1.768
		c-0.327-0.408-0.718-0.706-1.173-0.893c-0.455-0.187-0.933-0.297-1.435-0.333c-0.502-0.035-0.928-0.052-1.278-0.052h-2.45V145.165z
		"/>
	<path d="M409.444,133.195h14.385v5.81h-8.05v4.025h7.805v5.81h-7.805v4.445h8.05v5.81h-14.385V133.195z"/>
	<path d="M427.924,133.195h8.19c1.143,0,2.123,0.035,2.94,0.105c0.816,0.07,1.528,0.181,2.135,0.333
		c0.606,0.152,1.138,0.344,1.593,0.578s0.893,0.513,1.312,0.84c1.073,0.84,1.873,1.896,2.397,3.167
		c0.525,1.272,0.788,2.572,0.788,3.902c0,0.747-0.105,1.552-0.315,2.415c-0.21,0.864-0.566,1.686-1.067,2.468
		c-0.502,0.782-1.167,1.47-1.995,2.065c-0.828,0.595-1.849,0.998-3.062,1.208l7.035,8.82h-7.56l-5.985-8.365h-0.07v8.365h-6.335
		V133.195z M434.259,146.215h2.345c0.98,0,1.755-0.134,2.328-0.403c0.571-0.268,1.003-0.595,1.295-0.98
		c0.292-0.385,0.484-0.787,0.578-1.208c0.093-0.42,0.14-0.793,0.14-1.12c0-1.19-0.391-2.071-1.173-2.643s-1.814-0.857-3.097-0.857
		h-2.415V146.215z"/>
	<path d="M450.779,133.195h6.615v25.9h-6.615V133.195z"/>
	<path d="M462.083,133.195h8.47c1.19,0,2.21,0.047,3.062,0.14c0.852,0.093,1.586,0.222,2.205,0.385
		c0.618,0.164,1.138,0.362,1.558,0.595s0.805,0.49,1.155,0.77c1.026,0.84,1.791,1.861,2.292,3.062
		c0.501,1.202,0.752,2.467,0.752,3.797c0,0.653-0.064,1.312-0.192,1.978c-0.128,0.665-0.315,1.295-0.56,1.89
		c-0.245,0.595-0.531,1.144-0.857,1.645c-0.327,0.502-0.7,0.928-1.12,1.278c-0.443,0.374-0.898,0.7-1.365,0.98
		c-0.467,0.28-0.992,0.513-1.575,0.7c-0.583,0.187-1.249,0.327-1.995,0.42c-0.747,0.093-1.622,0.14-2.625,0.14h-2.87v8.12h-6.335
		V133.195z M468.418,145.165h2.695c0.303,0,0.694-0.017,1.172-0.052c0.478-0.035,0.933-0.146,1.365-0.333
		c0.431-0.187,0.805-0.496,1.12-0.928c0.315-0.431,0.472-1.032,0.472-1.802s-0.164-1.359-0.49-1.768
		c-0.327-0.408-0.718-0.706-1.173-0.893c-0.455-0.187-0.933-0.297-1.435-0.333c-0.502-0.035-0.928-0.052-1.278-0.052h-2.45V145.165z
		"/>
	<path d="M484.343,133.195h6.615v9.73h8.47v-9.73h6.615v25.9h-6.615v-10.36h-8.47v10.36h-6.615V133.195z"/>
	<path d="M510.733,133.195h14.385v5.81h-8.05v4.025h7.805v5.81h-7.805v4.445h8.05v5.81h-14.385V133.195z"/>
	<path d="M529.213,133.195h8.19c1.143,0,2.123,0.035,2.94,0.105c0.816,0.07,1.528,0.181,2.135,0.333
		c0.606,0.152,1.138,0.344,1.593,0.578s0.893,0.513,1.312,0.84c1.073,0.84,1.873,1.896,2.397,3.167
		c0.525,1.272,0.788,2.572,0.788,3.902c0,0.747-0.105,1.552-0.315,2.415c-0.21,0.864-0.566,1.686-1.067,2.468
		c-0.502,0.782-1.167,1.47-1.995,2.065c-0.828,0.595-1.849,0.998-3.062,1.208l7.035,8.82h-7.56l-5.985-8.365h-0.07v8.365h-6.335
		V133.195z M535.548,146.215h2.345c0.98,0,1.755-0.134,2.328-0.403c0.571-0.268,1.003-0.595,1.295-0.98
		c0.292-0.385,0.484-0.787,0.578-1.208c0.093-0.42,0.14-0.793,0.14-1.12c0-1.19-0.391-2.071-1.173-2.643s-1.814-0.857-3.097-0.857
		h-2.415V146.215z"/>
	<path d="M558.508,155.35l-1.365,3.745h-7.105l10.395-25.9h5.215l10.29,25.9h-7.175l-1.26-3.745H558.508z M560.328,150.1h5.425
		l-2.66-8.855h-0.035h-0.07L560.328,150.1z"/>
	<path d="M578.773,133.195h6.615v20.09h7.665v5.81h-14.28V133.195z"/>
	<path d="M606.458,133.195h6.615v25.9h-6.615V133.195z"/>
	<path d="M627.912,140.755c-0.047-0.21-0.1-0.46-0.158-0.752c-0.059-0.292-0.169-0.572-0.333-0.84
		c-0.164-0.268-0.391-0.49-0.683-0.665c-0.292-0.175-0.694-0.262-1.207-0.262c-0.584,0-1.109,0.187-1.575,0.56
		c-0.467,0.374-0.7,0.863-0.7,1.47c0,0.397,0.058,0.724,0.175,0.98c0.116,0.257,0.367,0.52,0.752,0.788
		c0.385,0.269,0.927,0.572,1.627,0.91c0.7,0.338,1.633,0.764,2.8,1.277c1.213,0.537,2.21,1.085,2.993,1.645
		c0.781,0.56,1.4,1.144,1.855,1.75c0.455,0.607,0.77,1.243,0.945,1.908c0.175,0.665,0.263,1.371,0.263,2.117
		c0,0.957-0.152,1.908-0.455,2.853c-0.303,0.944-0.805,1.791-1.505,2.537c-0.7,0.747-1.627,1.36-2.783,1.838
		c-1.155,0.478-2.584,0.718-4.287,0.718c-1.867,0-3.407-0.274-4.62-0.822c-1.213-0.549-2.17-1.23-2.87-2.048
		c-0.7-0.816-1.185-1.703-1.453-2.66c-0.269-0.957-0.402-1.855-0.402-2.695v-0.84h6.58c0,0.747,0.099,1.354,0.297,1.82
		s0.443,0.829,0.735,1.085c0.292,0.257,0.589,0.426,0.893,0.507c0.303,0.082,0.56,0.123,0.77,0.123c0.793,0,1.412-0.263,1.855-0.788
		c0.443-0.525,0.665-1.09,0.665-1.697c0-0.42-0.076-0.782-0.228-1.085c-0.152-0.303-0.42-0.583-0.805-0.84
		c-0.385-0.256-0.905-0.53-1.558-0.822c-0.654-0.292-1.482-0.647-2.485-1.067c-0.467-0.187-1.056-0.449-1.768-0.788
		c-0.712-0.338-1.406-0.793-2.083-1.365c-0.677-0.571-1.26-1.289-1.75-2.152c-0.49-0.863-0.735-1.901-0.735-3.115
		s0.268-2.293,0.805-3.238c0.537-0.945,1.236-1.744,2.1-2.397c0.863-0.653,1.832-1.149,2.905-1.487s2.158-0.508,3.255-0.508
		c1.283,0,2.56,0.24,3.833,0.718c1.271,0.479,2.327,1.219,3.167,2.222c0.373,0.467,0.67,0.928,0.892,1.383s0.391,0.898,0.508,1.33
		c0.116,0.432,0.192,0.846,0.228,1.242c0.035,0.397,0.064,0.782,0.087,1.155H627.912z"/>
	<path d="M637.712,140.93c0.35-0.84,0.863-1.738,1.54-2.695c0.677-0.957,1.534-1.849,2.573-2.678
		c1.038-0.828,2.263-1.51,3.675-2.047c1.412-0.537,3.028-0.805,4.848-0.805c1.983,0,3.815,0.362,5.495,1.085
		c1.68,0.724,3.126,1.698,4.34,2.923c1.213,1.225,2.158,2.654,2.835,4.287c0.677,1.634,1.015,3.349,1.015,5.145
		c0,1.797-0.338,3.512-1.015,5.145c-0.677,1.634-1.622,3.062-2.835,4.288c-1.213,1.225-2.66,2.199-4.34,2.923
		c-1.68,0.723-3.523,1.085-5.53,1.085c-2.03,0-3.885-0.374-5.565-1.12c-1.68-0.747-3.115-1.732-4.305-2.958
		c-1.19-1.225-2.112-2.625-2.765-4.2c-0.654-1.575-0.98-3.19-0.98-4.847c0-0.863,0.07-1.762,0.21-2.695
		C637.047,142.832,637.314,141.887,637.712,140.93z M643.312,146.075c0,1.003,0.163,1.966,0.49,2.888
		c0.326,0.922,0.799,1.738,1.417,2.45c0.618,0.712,1.365,1.284,2.24,1.715s1.873,0.647,2.993,0.647c1.167,0,2.188-0.239,3.062-0.718
		c0.875-0.478,1.598-1.09,2.17-1.837c0.572-0.747,1.003-1.563,1.295-2.45c0.292-0.886,0.438-1.75,0.438-2.59
		s-0.146-1.709-0.438-2.607c-0.292-0.898-0.723-1.727-1.295-2.485s-1.301-1.376-2.188-1.855c-0.887-0.478-1.925-0.718-3.115-0.718
		c-1.144,0-2.159,0.222-3.045,0.665c-0.887,0.443-1.628,1.027-2.223,1.75c-0.595,0.724-1.044,1.535-1.348,2.433
		C643.463,144.261,643.312,145.165,643.312,146.075z"/>
	<path d="M667.777,133.195h6.615v20.09h7.665v5.81h-14.28V133.195z"/>
	<path d="M691.087,155.35l-1.365,3.745h-7.105l10.395-25.9h5.215l10.29,25.9h-7.175l-1.26-3.745H691.087z M692.907,150.1h5.425
		l-2.66-8.855h-0.035h-0.07L692.907,150.1z"/>
	<path d="M713.417,139.005h-5.11v-5.81h16.8v5.81h-5.075v20.09h-6.615V139.005z"/>
	<path d="M727.767,133.195h14.385v5.81h-8.05v4.025h7.805v5.81h-7.805v4.445h8.05v5.81h-14.385V133.195z"/>
	<path d="M757.061,133.195h8.47c1.19,0,2.21,0.047,3.062,0.14c0.852,0.093,1.586,0.222,2.205,0.385
		c0.618,0.164,1.138,0.362,1.558,0.595s0.805,0.49,1.155,0.77c1.026,0.84,1.791,1.861,2.292,3.062
		c0.501,1.202,0.752,2.467,0.752,3.797c0,0.653-0.064,1.312-0.192,1.978c-0.128,0.665-0.315,1.295-0.56,1.89
		c-0.245,0.595-0.531,1.144-0.857,1.645c-0.327,0.502-0.7,0.928-1.12,1.278c-0.443,0.374-0.898,0.7-1.365,0.98
		c-0.467,0.28-0.992,0.513-1.575,0.7c-0.583,0.187-1.249,0.327-1.995,0.42c-0.747,0.093-1.622,0.14-2.625,0.14h-2.87v8.12h-6.335
		V133.195z M763.396,145.165h2.695c0.303,0,0.694-0.017,1.172-0.052c0.478-0.035,0.933-0.146,1.365-0.333
		c0.431-0.187,0.805-0.496,1.12-0.928c0.315-0.431,0.472-1.032,0.472-1.802s-0.164-1.359-0.49-1.768
		c-0.327-0.408-0.718-0.706-1.173-0.893c-0.455-0.187-0.933-0.297-1.435-0.333c-0.502-0.035-0.928-0.052-1.278-0.052h-2.45V145.165z
		"/>
	<path d="M779.216,140.93c0.35-0.84,0.863-1.738,1.54-2.695c0.677-0.957,1.534-1.849,2.573-2.678
		c1.038-0.828,2.263-1.51,3.675-2.047c1.412-0.537,3.028-0.805,4.848-0.805c1.983,0,3.815,0.362,5.495,1.085
		c1.68,0.724,3.126,1.698,4.34,2.923c1.213,1.225,2.158,2.654,2.835,4.287c0.677,1.634,1.015,3.349,1.015,5.145
		c0,1.797-0.338,3.512-1.015,5.145c-0.677,1.634-1.622,3.062-2.835,4.288c-1.213,1.225-2.66,2.199-4.34,2.923
		c-1.68,0.723-3.523,1.085-5.53,1.085c-2.03,0-3.885-0.374-5.565-1.12c-1.68-0.747-3.115-1.732-4.305-2.958
		c-1.19-1.225-2.112-2.625-2.765-4.2c-0.654-1.575-0.98-3.19-0.98-4.847c0-0.863,0.07-1.762,0.21-2.695
		C778.551,142.832,778.818,141.887,779.216,140.93z M784.815,146.075c0,1.003,0.163,1.966,0.49,2.888
		c0.326,0.922,0.799,1.738,1.417,2.45c0.618,0.712,1.365,1.284,2.24,1.715s1.873,0.647,2.993,0.647c1.167,0,2.188-0.239,3.062-0.718
		c0.875-0.478,1.598-1.09,2.17-1.837c0.572-0.747,1.003-1.563,1.295-2.45c0.292-0.886,0.438-1.75,0.438-2.59
		s-0.146-1.709-0.438-2.607c-0.292-0.898-0.723-1.727-1.295-2.485s-1.301-1.376-2.188-1.855c-0.887-0.478-1.925-0.718-3.115-0.718
		c-1.144,0-2.159,0.222-3.045,0.665c-0.887,0.443-1.628,1.027-2.223,1.75c-0.595,0.724-1.044,1.535-1.348,2.433
		C784.967,144.261,784.815,145.165,784.815,146.075z"/>
	<path d="M809.105,133.195h8.471c1.189,0,2.21,0.047,3.062,0.14c0.852,0.093,1.586,0.222,2.205,0.385
		c0.617,0.164,1.137,0.362,1.557,0.595s0.805,0.49,1.155,0.77c1.026,0.84,1.79,1.861,2.292,3.062s0.753,2.467,0.753,3.797
		c0,0.653-0.064,1.312-0.192,1.978c-0.129,0.665-0.314,1.295-0.561,1.89c-0.244,0.595-0.53,1.144-0.857,1.645
		c-0.326,0.502-0.699,0.928-1.119,1.278c-0.443,0.374-0.898,0.7-1.365,0.98c-0.467,0.28-0.992,0.513-1.575,0.7
		c-0.583,0.187-1.249,0.327-1.995,0.42c-0.747,0.093-1.622,0.14-2.625,0.14h-2.869v8.12h-6.336V133.195z M815.441,145.165h2.694
		c0.303,0,0.694-0.017,1.173-0.052c0.478-0.035,0.933-0.146,1.365-0.333c0.431-0.187,0.805-0.496,1.119-0.928
		c0.315-0.431,0.473-1.032,0.473-1.802s-0.164-1.359-0.49-1.768c-0.326-0.408-0.717-0.706-1.172-0.893
		c-0.455-0.187-0.934-0.297-1.436-0.333c-0.502-0.035-0.928-0.052-1.277-0.052h-2.449V145.165z"/>
	<path d="M837.91,133.195v15.645c0,0.443,0.023,0.951,0.07,1.522s0.175,1.108,0.385,1.61c0.211,0.502,0.543,0.928,0.998,1.277
		c0.455,0.35,1.09,0.525,1.907,0.525c0.816,0,1.446-0.158,1.89-0.473s0.771-0.717,0.98-1.208s0.332-1.026,0.367-1.61
		c0.035-0.583,0.053-1.132,0.053-1.645v-15.645h6.615v15.645c0,1.097-0.059,2.047-0.176,2.853c-0.117,0.805-0.285,1.511-0.507,2.117
		c-0.222,0.607-0.49,1.15-0.806,1.627c-0.314,0.479-0.682,0.928-1.102,1.349c-0.84,0.863-1.855,1.546-3.045,2.047
		c-1.19,0.502-2.59,0.753-4.201,0.753c-0.467,0-1.021-0.035-1.662-0.105c-0.642-0.069-1.301-0.204-1.977-0.402
		c-0.678-0.198-1.348-0.478-2.014-0.84c-0.664-0.361-1.266-0.834-1.802-1.418c-0.537-0.583-0.975-1.148-1.312-1.697
		c-0.339-0.548-0.601-1.125-0.788-1.732c-0.187-0.606-0.314-1.277-0.385-2.012c-0.07-0.735-0.105-1.581-0.105-2.538v-15.645H837.91z
		"/>
	<path d="M855.971,133.195h6.614v20.09h7.665v5.81h-14.279V133.195z"/>
	<path d="M879.28,155.35l-1.365,3.745h-7.104l10.395-25.9h5.215l10.29,25.9h-7.175l-1.26-3.745H879.28z M881.1,150.1h5.426
		l-2.66-8.855h-0.035h-0.07L881.1,150.1z"/>
	<path d="M901.61,139.005h-5.11v-5.81h16.801v5.81h-5.075v20.09h-6.615V139.005z"/>
	<path d="M915.961,133.195h6.614v25.9h-6.614V133.195z"/>
	<path d="M927.16,140.93c0.35-0.84,0.863-1.738,1.54-2.695c0.677-0.957,1.534-1.849,2.573-2.678c1.037-0.828,2.262-1.51,3.674-2.047
		c1.412-0.537,3.028-0.805,4.848-0.805c1.983,0,3.815,0.362,5.496,1.085c1.68,0.724,3.126,1.698,4.34,2.923
		c1.213,1.225,2.158,2.654,2.834,4.287c0.678,1.634,1.016,3.349,1.016,5.145c0,1.797-0.338,3.512-1.016,5.145
		c-0.676,1.634-1.621,3.062-2.834,4.288c-1.214,1.225-2.66,2.199-4.34,2.923c-1.681,0.723-3.523,1.085-5.531,1.085
		c-2.029,0-3.885-0.374-5.564-1.12c-1.68-0.747-3.115-1.732-4.305-2.958c-1.19-1.225-2.112-2.625-2.766-4.2
		c-0.653-1.575-0.979-3.19-0.979-4.847c0-0.863,0.069-1.762,0.21-2.695C926.496,142.832,926.764,141.887,927.16,140.93z
		 M932.76,146.075c0,1.003,0.164,1.966,0.49,2.888s0.799,1.738,1.418,2.45c0.617,0.712,1.365,1.284,2.24,1.715
		s1.872,0.647,2.992,0.647c1.166,0,2.188-0.239,3.062-0.718c0.875-0.478,1.598-1.09,2.17-1.837c0.572-0.747,1.003-1.563,1.295-2.45
		c0.291-0.886,0.438-1.75,0.438-2.59s-0.146-1.709-0.438-2.607c-0.292-0.898-0.723-1.727-1.295-2.485s-1.301-1.376-2.188-1.855
		c-0.887-0.478-1.925-0.718-3.115-0.718c-1.143,0-2.158,0.222-3.045,0.665c-0.887,0.443-1.627,1.027-2.223,1.75
		c-0.595,0.724-1.044,1.535-1.348,2.433C932.912,144.261,932.76,145.165,932.76,146.075z"/>
	<path d="M957.051,133.195h5.705l10.01,16.275l0.07-0.07l-0.28-16.205h6.335v25.9h-5.74l-9.869-15.75l-0.07,0.035l0.175,15.715
		h-6.335V133.195z"/>
</g>
<g>
	<path fill="#FFFFFF" d="M97.611,62.611h-5.11v-5.81h16.8v5.81h-5.075v20.09h-6.615V62.611z"/>
	<path fill="#FFFFFF" d="M111.961,56.801h6.615v25.9h-6.615V56.801z"/>
	<path fill="#FFFFFF" d="M123.266,56.801h8.505l5.145,17.045h0.07l5.075-17.045h8.54v25.9h-6.09l0.21-19.39l-0.07-0.07l-5.53,19.46
		h-4.375l-5.53-19.46l-0.07,0.07l0.21,19.39h-6.09V56.801z"/>
	<path fill="#FFFFFF" d="M155.291,56.801h14.385v5.81h-8.05v4.025h7.805v5.81h-7.805v4.445h8.05v5.81h-14.385V56.801z"/>
</g>
<polygon fill="#39B54A" stroke="#231F20" stroke-width="5" stroke-miterlimit="10" points="856.42,241.287 824.087,246.988 
	829.833,253.835 746.432,323.816 756.044,335.271 839.444,265.29 845.191,272.136 "/>
<g>
</g>
<g>
</g>
<g>
</g>
<g>
</g>
<g>
</g>
<g>
</g>
</svg>
