<?xml version="1.0" encoding="utf-8"?>
<!-- Generator: Adobe Illustrator 16.0.0, SVG Export Plug-In . SVG Version: 6.00 Build 0)  -->
<!DOCTYPE svg PUBLIC "-//W3C//DTD SVG 1.1//EN" "http://www.w3.org/Graphics/SVG/1.1/DTD/svg11.dtd">
<svg version="1.1" id="Layer_1" xmlns="http://www.w3.org/2000/svg" xmlns:xlink="http://www.w3.org/1999/xlink" x="0px" y="0px"
	 width="1526.924px" height="655.582px" viewBox="0 0 1526.924 655.582" enable-background="new 0 0 1526.924 655.582"
	 xml:space="preserve">
<circle fill="#39B54A" stroke="#464646" stroke-width="10" stroke-miterlimit="10" cx="337.622" cy="328.508" r="166"/>
<g>
	<path d="M215.623,539.367c0.5-1.2,1.232-2.482,2.2-3.85c0.966-1.367,2.191-2.643,3.675-3.826c1.482-1.182,3.232-2.157,5.25-2.924
		c2.016-0.768,4.325-1.15,6.925-1.15c2.833,0,5.45,0.518,7.85,1.55c2.4,1.034,4.466,2.425,6.2,4.175
		c1.733,1.75,3.083,3.793,4.05,6.125c0.966,2.334,1.45,4.783,1.45,7.35c0,2.568-0.483,5.018-1.45,7.351
		c-0.967,2.333-2.317,4.375-4.05,6.125c-1.733,1.749-3.8,3.142-6.2,4.175s-5.034,1.551-7.9,1.551c-2.9,0-5.55-0.535-7.95-1.602
		s-4.45-2.475-6.15-4.225c-1.7-1.75-3.017-3.75-3.95-6c-0.934-2.25-1.4-4.557-1.4-6.924c0-1.233,0.1-2.518,0.3-3.851
		C214.673,542.084,215.056,540.734,215.623,539.367z M223.623,546.717c0,1.434,0.232,2.809,0.7,4.125
		c0.466,1.317,1.142,2.484,2.025,3.5c0.883,1.018,1.95,1.834,3.2,2.45c1.25,0.617,2.675,0.925,4.275,0.925
		c1.667,0,3.125-0.342,4.375-1.025c1.25-0.682,2.283-1.557,3.1-2.625c0.816-1.066,1.433-2.232,1.85-3.5
		c0.417-1.266,0.625-2.5,0.625-3.699c0-1.2-0.208-2.441-0.625-3.725c-0.417-1.283-1.034-2.467-1.85-3.551
		c-0.817-1.082-1.858-1.967-3.125-2.65c-1.267-0.682-2.75-1.024-4.45-1.024c-1.633,0-3.083,0.317-4.35,0.95
		c-1.268,0.633-2.325,1.467-3.175,2.5s-1.492,2.191-1.925,3.475C223.839,544.125,223.623,545.417,223.623,546.717z"/>
	<path d="M258.323,528.316h11.7c1.633,0,3.033,0.051,4.2,0.15c1.167,0.1,2.183,0.259,3.05,0.475
		c0.867,0.218,1.625,0.492,2.275,0.826c0.65,0.333,1.275,0.732,1.875,1.199c1.533,1.2,2.675,2.709,3.425,4.525
		s1.125,3.675,1.125,5.574c0,1.068-0.15,2.218-0.45,3.451c-0.3,1.232-0.809,2.408-1.525,3.524c-0.717,1.117-1.667,2.101-2.85,2.95
		c-1.184,0.85-2.642,1.425-4.375,1.725l10.05,12.6h-10.8l-8.55-11.949h-0.1v11.949h-9.05V528.316z M267.373,546.917h3.35
		c1.4,0,2.508-0.191,3.325-0.575c0.816-0.383,1.433-0.85,1.85-1.4c0.417-0.549,0.691-1.125,0.825-1.725c0.133-0.6,0.2-1.133,0.2-1.6
		c0-1.7-0.559-2.958-1.675-3.775c-1.117-0.816-2.592-1.225-4.425-1.225h-3.45V546.917z"/>
	<path d="M290.973,528.316h9.45v37h-9.45V528.316z"/>
	<path d="M344.873,544.268c0.033,0.333,0.05,0.649,0.05,0.949c0,0.301,0,0.634,0,1c0,3.1-0.55,5.875-1.65,8.325
		s-2.559,4.534-4.375,6.25c-1.817,1.718-3.917,3.024-6.3,3.925c-2.384,0.9-4.859,1.35-7.425,1.35c-2.8,0-5.4-0.508-7.8-1.525
		c-2.4-1.016-4.475-2.406-6.225-4.174c-1.75-1.767-3.125-3.825-4.125-6.176c-1-2.35-1.5-4.857-1.5-7.524
		c0-2.767,0.517-5.316,1.55-7.649c1.033-2.334,2.45-4.342,4.25-6.025c1.8-1.684,3.9-3,6.3-3.95s4.966-1.425,7.7-1.425
		c2.2,0,4.308,0.35,6.325,1.05c2.017,0.7,3.841,1.642,5.475,2.825c1.633,1.184,3.033,2.566,4.2,4.15c1.167,1.583,2,3.274,2.5,5.074
		h-10.6c-0.734-1.3-1.775-2.425-3.125-3.375c-1.35-0.949-3.025-1.425-5.025-1.425c-1.167,0-2.35,0.218-3.55,0.649
		c-1.2,0.434-2.284,1.093-3.25,1.976c-0.967,0.884-1.759,2-2.375,3.351c-0.617,1.35-0.925,2.941-0.925,4.774
		c0,1.934,0.308,3.601,0.925,5c0.616,1.399,1.417,2.55,2.4,3.45c0.983,0.9,2.075,1.566,3.275,2c1.2,0.434,2.383,0.65,3.55,0.65
		c2.366,0,4.308-0.542,5.825-1.625c1.517-1.084,2.525-2.525,3.025-4.326h-11.05v-7.549H344.873z"/>
	<path d="M349.822,528.316h9.45v37h-9.45V528.316z"/>
	<path d="M365.972,528.316h8.15l14.3,23.25l0.1-0.1l-0.4-23.15h9.05v37h-8.2l-14.1-22.5l-0.1,0.051l0.25,22.449h-9.05V528.316z"/>
	<path d="M413.121,559.967l-1.95,5.35h-10.15l14.85-37h7.45l14.7,37h-10.25l-1.8-5.35H413.121z M415.721,552.467h7.75l-3.8-12.65
		h-0.05h-0.1L415.721,552.467z"/>
	<path d="M442.071,528.316h9.45v28.701h10.95v8.299h-20.4V528.316z"/>
	<path d="M179.148,588.316h12.1c1.7,0,3.158,0.068,4.375,0.201c1.216,0.133,2.266,0.316,3.15,0.549
		c0.883,0.234,1.625,0.518,2.225,0.85c0.6,0.334,1.15,0.701,1.65,1.102c1.466,1.199,2.558,2.658,3.275,4.375
		c0.716,1.717,1.075,3.523,1.075,5.424c0,0.934-0.092,1.875-0.275,2.826c-0.184,0.949-0.45,1.85-0.8,2.699s-0.759,1.633-1.225,2.35
		c-0.467,0.717-1,1.326-1.6,1.826c-0.633,0.533-1.283,1-1.95,1.398c-0.667,0.4-1.417,0.734-2.25,1
		c-0.833,0.268-1.784,0.469-2.85,0.602c-1.067,0.133-2.317,0.199-3.75,0.199h-4.1v11.6h-9.05V588.316z M188.198,605.416h3.85
		c0.433,0,0.991-0.023,1.675-0.074c0.683-0.051,1.333-0.207,1.95-0.475c0.616-0.268,1.15-0.709,1.6-1.326
		c0.45-0.615,0.675-1.475,0.675-2.574s-0.233-1.941-0.7-2.525c-0.467-0.582-1.025-1.008-1.675-1.275
		c-0.65-0.266-1.333-0.424-2.05-0.475c-0.717-0.049-1.325-0.074-1.825-0.074h-3.5V605.416z"/>
	<path d="M210.798,599.367c0.5-1.201,1.232-2.482,2.2-3.85c0.966-1.367,2.191-2.643,3.675-3.826c1.482-1.182,3.232-2.158,5.25-2.924
		c2.016-0.768,4.325-1.15,6.925-1.15c2.833,0,5.45,0.518,7.85,1.549c2.4,1.035,4.466,2.426,6.2,4.176
		c1.733,1.75,3.083,3.793,4.05,6.125c0.966,2.334,1.45,4.783,1.45,7.35c0,2.568-0.483,5.018-1.45,7.35
		c-0.967,2.334-2.317,4.375-4.05,6.125c-1.733,1.75-3.8,3.143-6.2,4.176s-5.034,1.551-7.9,1.551c-2.9,0-5.55-0.535-7.95-1.602
		s-4.45-2.475-6.15-4.225c-1.7-1.75-3.017-3.75-3.95-6c-0.934-2.25-1.4-4.557-1.4-6.924c0-1.234,0.1-2.518,0.3-3.852
		C209.848,602.084,210.23,600.734,210.798,599.367z M218.798,606.717c0,1.434,0.232,2.809,0.7,4.125
		c0.466,1.316,1.142,2.484,2.025,3.5c0.883,1.018,1.95,1.834,3.2,2.449c1.25,0.617,2.675,0.926,4.275,0.926
		c1.667,0,3.125-0.342,4.375-1.025c1.25-0.682,2.283-1.557,3.1-2.625c0.816-1.066,1.433-2.232,1.85-3.5
		c0.417-1.266,0.625-2.5,0.625-3.699c0-1.201-0.208-2.441-0.625-3.725c-0.417-1.283-1.034-2.467-1.85-3.551
		c-0.817-1.082-1.858-1.967-3.125-2.65c-1.267-0.682-2.75-1.025-4.45-1.025c-1.633,0-3.083,0.318-4.35,0.951
		c-1.268,0.633-2.325,1.467-3.175,2.5s-1.492,2.191-1.925,3.475C219.014,604.125,218.798,605.416,218.798,606.717z"/>
	<path d="M253.498,588.316h12.1c1.7,0,3.158,0.068,4.375,0.201c1.216,0.133,2.266,0.316,3.15,0.549
		c0.883,0.234,1.625,0.518,2.225,0.85c0.6,0.334,1.15,0.701,1.65,1.102c1.466,1.199,2.558,2.658,3.275,4.375
		c0.716,1.717,1.075,3.523,1.075,5.424c0,0.934-0.092,1.875-0.275,2.826c-0.184,0.949-0.45,1.85-0.8,2.699s-0.759,1.633-1.225,2.35
		c-0.467,0.717-1,1.326-1.6,1.826c-0.633,0.533-1.283,1-1.95,1.398c-0.667,0.4-1.417,0.734-2.25,1
		c-0.833,0.268-1.784,0.469-2.85,0.602c-1.067,0.133-2.317,0.199-3.75,0.199h-4.1v11.6h-9.05V588.316z M262.547,605.416h3.85
		c0.433,0,0.991-0.023,1.675-0.074c0.683-0.051,1.333-0.207,1.95-0.475c0.616-0.268,1.15-0.709,1.6-1.326
		c0.45-0.615,0.675-1.475,0.675-2.574s-0.233-1.941-0.7-2.525c-0.467-0.582-1.025-1.008-1.675-1.275
		c-0.65-0.266-1.333-0.424-2.05-0.475c-0.717-0.049-1.325-0.074-1.825-0.074h-3.5V605.416z"/>
	<path d="M294.647,588.316v22.35c0,0.635,0.033,1.359,0.1,2.176c0.066,0.816,0.25,1.584,0.55,2.301
		c0.3,0.717,0.775,1.324,1.425,1.824s1.558,0.75,2.725,0.75c1.167,0,2.066-0.225,2.7-0.676c0.633-0.449,1.1-1.023,1.4-1.725
		c0.3-0.699,0.475-1.467,0.525-2.299c0.05-0.834,0.075-1.617,0.075-2.352v-22.35h9.45v22.35c0,1.568-0.083,2.926-0.25,4.076
		c-0.167,1.15-0.409,2.158-0.725,3.025c-0.317,0.867-0.7,1.641-1.15,2.324c-0.45,0.684-0.975,1.324-1.575,1.926
		c-1.2,1.232-2.65,2.207-4.35,2.924c-1.7,0.717-3.7,1.076-6,1.076c-0.667,0-1.458-0.051-2.375-0.15
		c-0.917-0.1-1.859-0.293-2.825-0.576c-0.967-0.281-1.925-0.682-2.875-1.199c-0.95-0.516-1.809-1.191-2.575-2.025
		c-0.768-0.832-1.393-1.641-1.875-2.424c-0.484-0.783-0.859-1.609-1.125-2.477c-0.268-0.865-0.45-1.824-0.55-2.875
		c-0.1-1.049-0.15-2.258-0.15-3.625v-22.35H294.647z"/>
	<path d="M320.447,588.316h9.45v28.701h10.95v8.299h-20.4V588.316z"/>
	<path d="M353.747,619.967l-1.95,5.35h-10.15l14.85-37h7.45l14.7,37h-10.25l-1.8-5.35H353.747z M356.347,612.467h7.75l-3.8-12.65
		h-0.05h-0.1L356.347,612.467z"/>
	<path d="M385.647,596.617h-7.3v-8.301h24v8.301h-7.25v28.699h-9.45V596.617z"/>
	<path d="M406.147,588.316h9.45v37h-9.45V588.316z"/>
	<path d="M422.147,599.367c0.5-1.201,1.232-2.482,2.2-3.85c0.966-1.367,2.191-2.643,3.675-3.826c1.482-1.182,3.232-2.158,5.25-2.924
		c2.016-0.768,4.325-1.15,6.925-1.15c2.833,0,5.45,0.518,7.85,1.549c2.4,1.035,4.466,2.426,6.2,4.176
		c1.733,1.75,3.083,3.793,4.05,6.125c0.966,2.334,1.45,4.783,1.45,7.35c0,2.568-0.483,5.018-1.45,7.35
		c-0.967,2.334-2.317,4.375-4.05,6.125c-1.733,1.75-3.8,3.143-6.2,4.176s-5.034,1.551-7.9,1.551c-2.9,0-5.55-0.535-7.95-1.602
		s-4.45-2.475-6.15-4.225c-1.7-1.75-3.017-3.75-3.95-6c-0.934-2.25-1.4-4.557-1.4-6.924c0-1.234,0.1-2.518,0.3-3.852
		C421.197,602.084,421.58,600.734,422.147,599.367z M430.147,606.717c0,1.434,0.232,2.809,0.7,4.125
		c0.466,1.316,1.142,2.484,2.025,3.5c0.883,1.018,1.95,1.834,3.2,2.449c1.25,0.617,2.675,0.926,4.275,0.926
		c1.667,0,3.125-0.342,4.375-1.025c1.25-0.682,2.283-1.557,3.1-2.625c0.816-1.066,1.433-2.232,1.85-3.5
		c0.417-1.266,0.625-2.5,0.625-3.699c0-1.201-0.208-2.441-0.625-3.725c-0.417-1.283-1.034-2.467-1.85-3.551
		c-0.817-1.082-1.858-1.967-3.125-2.65c-1.267-0.682-2.75-1.025-4.45-1.025c-1.633,0-3.083,0.318-4.35,0.951
		c-1.268,0.633-2.325,1.467-3.175,2.5s-1.492,2.191-1.925,3.475C430.363,604.125,430.147,605.416,430.147,606.717z"/>
	<path d="M464.847,588.316h8.15l14.3,23.25l0.1-0.1l-0.4-23.15h9.05v37h-8.2l-14.1-22.5l-0.1,0.051l0.25,22.449h-9.05V588.316z"/>
</g>
<radialGradient id="SVGID_1_" cx="766.6211" cy="328.5078" r="166" gradientUnits="userSpaceOnUse">
	<stop  offset="0.15" style="stop-color:#0072BC"/>
	<stop  offset="0.2383" style="stop-color:#138995"/>
	<stop  offset="0.3" style="stop-color:#1E967F"/>
	<stop  offset="0.3192" style="stop-color:#20987B"/>
	<stop  offset="0.4875" style="stop-color:#2EA860"/>
	<stop  offset="0.6366" style="stop-color:#36B250"/>
	<stop  offset="0.75" style="stop-color:#39B54A"/>
</radialGradient>
<circle fill="url(#SVGID_1_)" stroke="#464646" stroke-width="10" stroke-miterlimit="10" cx="766.621" cy="328.508" r="166"/>
<circle fill="#39B54A" stroke="#464646" stroke-width="10" stroke-miterlimit="10" cx="1189.302" cy="328.508" r="166"/>
<circle fill="#0072BC" stroke="#464646" stroke-width="10" stroke-miterlimit="10" cx="1189.302" cy="328.508" r="80.55"/>
<g>
	<path d="M634.998,528.316h9.45v37h-9.45V528.316z"/>
	<path d="M665.647,539.116c-0.067-0.3-0.142-0.657-0.225-1.075c-0.083-0.416-0.242-0.816-0.475-1.199
		c-0.233-0.383-0.559-0.7-0.975-0.95c-0.417-0.25-0.992-0.375-1.725-0.375c-0.834,0-1.584,0.267-2.25,0.8
		c-0.667,0.533-1,1.233-1,2.1c0,0.567,0.083,1.034,0.25,1.4c0.166,0.367,0.525,0.742,1.075,1.125c0.55,0.384,1.325,0.817,2.325,1.3
		c1,0.483,2.333,1.093,4,1.825c1.733,0.768,3.158,1.55,4.275,2.35c1.116,0.801,2,1.634,2.65,2.5c0.65,0.867,1.1,1.775,1.35,2.726
		s0.375,1.958,0.375,3.024c0,1.367-0.217,2.726-0.65,4.075c-0.434,1.351-1.15,2.559-2.15,3.625c-1,1.067-2.325,1.942-3.975,2.625
		s-3.692,1.025-6.125,1.025c-2.667,0-4.867-0.393-6.6-1.175c-1.733-0.783-3.1-1.758-4.1-2.926c-1-1.166-1.692-2.433-2.075-3.8
		c-0.384-1.366-0.575-2.649-0.575-3.85v-1.2h9.4c0,1.067,0.142,1.934,0.425,2.6c0.283,0.668,0.633,1.184,1.05,1.551
		c0.417,0.367,0.841,0.608,1.275,0.725c0.433,0.117,0.8,0.175,1.1,0.175c1.133,0,2.017-0.375,2.65-1.125
		c0.633-0.75,0.95-1.558,0.95-2.425c0-0.6-0.109-1.116-0.325-1.55c-0.217-0.433-0.6-0.833-1.15-1.2
		c-0.55-0.366-1.292-0.758-2.225-1.175c-0.934-0.417-2.117-0.925-3.55-1.525c-0.667-0.267-1.509-0.642-2.525-1.125
		c-1.018-0.482-2.009-1.133-2.975-1.95c-0.967-0.816-1.8-1.841-2.5-3.074c-0.7-1.233-1.05-2.717-1.05-4.45s0.383-3.275,1.15-4.625
		c0.766-1.351,1.766-2.491,3-3.425c1.232-0.934,2.616-1.642,4.15-2.125c1.533-0.483,3.083-0.726,4.65-0.726
		c1.833,0,3.658,0.343,5.475,1.025c1.816,0.684,3.325,1.742,4.525,3.175c0.533,0.667,0.958,1.325,1.275,1.975
		c0.316,0.65,0.558,1.284,0.725,1.9c0.167,0.617,0.275,1.209,0.325,1.775c0.05,0.566,0.091,1.117,0.125,1.649H665.647z"/>
	<path d="M679.647,539.366c0.5-1.2,1.232-2.482,2.2-3.85c0.966-1.366,2.191-2.642,3.675-3.825c1.482-1.183,3.232-2.158,5.25-2.925
		c2.016-0.767,4.325-1.15,6.925-1.15c2.833,0,5.45,0.518,7.85,1.55c2.4,1.034,4.466,2.426,6.2,4.176
		c1.733,1.75,3.083,3.792,4.05,6.125c0.966,2.333,1.45,4.783,1.45,7.35c0,2.567-0.483,5.018-1.45,7.35
		c-0.967,2.334-2.317,4.375-4.05,6.125c-1.733,1.75-3.8,3.143-6.2,4.176c-2.4,1.032-5.034,1.55-7.9,1.55
		c-2.9,0-5.55-0.534-7.95-1.601s-4.45-2.475-6.15-4.225c-1.7-1.75-3.017-3.75-3.95-6c-0.934-2.25-1.4-4.558-1.4-6.925
		c0-1.233,0.1-2.517,0.3-3.851C678.697,542.084,679.08,540.733,679.647,539.366z M687.647,546.717c0,1.434,0.232,2.809,0.7,4.125
		c0.466,1.316,1.142,2.483,2.025,3.5c0.883,1.017,1.95,1.833,3.2,2.449c1.25,0.617,2.675,0.926,4.275,0.926
		c1.667,0,3.125-0.342,4.375-1.025c1.25-0.683,2.283-1.558,3.1-2.625c0.816-1.066,1.433-2.232,1.85-3.5
		c0.417-1.267,0.625-2.5,0.625-3.7s-0.208-2.441-0.625-3.725c-0.417-1.283-1.034-2.467-1.85-3.55
		c-0.817-1.083-1.858-1.967-3.125-2.65c-1.267-0.683-2.75-1.025-4.45-1.025c-1.633,0-3.083,0.317-4.35,0.95
		c-1.268,0.634-2.325,1.468-3.175,2.5c-0.85,1.034-1.492,2.192-1.925,3.476C687.864,544.125,687.647,545.416,687.647,546.717z"/>
	<path d="M722.597,528.316h9.45v28.7h10.95v8.3h-20.4V528.316z"/>
	<path d="M755.897,559.967l-1.95,5.35h-10.15l14.85-37h7.45l14.7,37h-10.25l-1.8-5.35H755.897z M758.497,552.467h7.75l-3.8-12.65
		h-0.05h-0.1L758.497,552.467z"/>
	<path d="M787.797,536.616h-7.3v-8.3h24v8.3h-7.25v28.7h-9.45V536.616z"/>
	<path d="M808.297,528.316h9.449v37h-9.449V528.316z"/>
	<path d="M824.297,539.366c0.5-1.2,1.232-2.482,2.199-3.85c0.967-1.366,2.191-2.642,3.676-3.825c1.482-1.183,3.232-2.158,5.25-2.925
		c2.016-0.767,4.324-1.15,6.925-1.15c2.833,0,5.45,0.518,7.851,1.55c2.399,1.034,4.466,2.426,6.199,4.176
		c1.732,1.75,3.083,3.792,4.051,6.125c0.966,2.333,1.449,4.783,1.449,7.35c0,2.567-0.483,5.018-1.449,7.35
		c-0.968,2.334-2.318,4.375-4.051,6.125c-1.733,1.75-3.8,3.143-6.199,4.176c-2.4,1.032-5.034,1.55-7.9,1.55
		c-2.9,0-5.551-0.534-7.95-1.601s-4.45-2.475-6.149-4.225c-1.701-1.75-3.018-3.75-3.951-6s-1.399-4.558-1.399-6.925
		c0-1.233,0.101-2.517,0.3-3.851C823.347,542.084,823.729,540.733,824.297,539.366z M832.297,546.717
		c0,1.434,0.232,2.809,0.699,4.125s1.143,2.483,2.025,3.5s1.95,1.833,3.2,2.449c1.25,0.617,2.675,0.926,4.274,0.926
		c1.667,0,3.125-0.342,4.375-1.025c1.25-0.683,2.283-1.558,3.101-2.625c0.816-1.066,1.433-2.232,1.851-3.5
		c0.416-1.267,0.625-2.5,0.625-3.7s-0.209-2.441-0.625-3.725c-0.418-1.283-1.034-2.467-1.851-3.55
		c-0.817-1.083-1.858-1.967-3.125-2.65c-1.267-0.683-2.75-1.025-4.45-1.025c-1.633,0-3.084,0.317-4.35,0.95
		c-1.268,0.634-2.325,1.468-3.176,2.5c-0.85,1.034-1.492,2.192-1.924,3.476C832.514,544.125,832.297,545.416,832.297,546.717z"/>
	<path d="M866.996,528.316h8.15l14.3,23.25l0.101-0.1l-0.4-23.15h9.05v37h-8.2l-14.1-22.5l-0.1,0.05l0.25,22.45h-9.051V528.316z"/>
</g>
<g>
	<path d="M1055.729,539.115c-0.068-0.299-0.143-0.656-0.226-1.074c-0.083-0.416-0.242-0.816-0.476-1.199
		c-0.232-0.383-0.559-0.701-0.975-0.951c-0.417-0.25-0.992-0.375-1.725-0.375c-0.834,0-1.584,0.268-2.25,0.801
		c-0.668,0.533-1,1.232-1,2.1c0,0.566,0.082,1.033,0.25,1.4c0.166,0.367,0.525,0.742,1.074,1.125
		c0.551,0.383,1.326,0.816,2.326,1.299c1,0.484,2.332,1.094,4,1.826c1.732,0.768,3.157,1.549,4.274,2.35
		c1.116,0.801,2,1.633,2.649,2.5c0.65,0.867,1.101,1.775,1.351,2.725c0.25,0.951,0.375,1.959,0.375,3.025
		c0,1.367-0.218,2.725-0.649,4.074c-0.434,1.352-1.15,2.559-2.15,3.625c-1,1.068-2.325,1.943-3.975,2.625
		c-1.65,0.684-3.693,1.025-6.125,1.025c-2.668,0-4.867-0.393-6.601-1.174c-1.733-0.783-3.101-1.758-4.101-2.926
		c-1-1.166-1.691-2.434-2.074-3.801c-0.384-1.365-0.575-2.648-0.575-3.85v-1.199h9.399c0,1.066,0.143,1.934,0.426,2.6
		c0.283,0.668,0.633,1.184,1.05,1.551s0.841,0.607,1.274,0.725s0.801,0.174,1.101,0.174c1.133,0,2.017-0.375,2.649-1.125
		s0.951-1.557,0.951-2.424c0-0.6-0.109-1.117-0.326-1.551c-0.217-0.432-0.6-0.832-1.149-1.199s-1.292-0.758-2.226-1.176
		c-0.934-0.416-2.117-0.924-3.549-1.525c-0.668-0.266-1.51-0.641-2.525-1.125c-1.018-0.482-2.009-1.133-2.975-1.949
		c-0.968-0.816-1.801-1.842-2.5-3.074c-0.701-1.234-1.051-2.717-1.051-4.451c0-1.732,0.383-3.275,1.15-4.625
		c0.766-1.35,1.766-2.49,3-3.424c1.232-0.934,2.616-1.643,4.15-2.125c1.532-0.484,3.082-0.727,4.649-0.727
		c1.833,0,3.657,0.344,5.476,1.025c1.816,0.684,3.324,1.742,4.524,3.176c0.532,0.666,0.958,1.324,1.274,1.975s0.559,1.283,0.726,1.9
		s0.274,1.209,0.325,1.775c0.05,0.566,0.092,1.117,0.125,1.648H1055.729z"/>
	<path d="M1069.878,528.316h12.101c1.699,0,3.157,0.066,4.375,0.199c1.216,0.135,2.266,0.318,3.149,0.551
		c0.883,0.232,1.625,0.518,2.226,0.85c0.6,0.334,1.149,0.699,1.649,1.1c1.466,1.201,2.558,2.658,3.274,4.375
		s1.076,3.525,1.076,5.426c0,0.934-0.093,1.875-0.275,2.824c-0.184,0.951-0.45,1.85-0.801,2.701c-0.35,0.85-0.758,1.633-1.225,2.35
		s-1,1.324-1.6,1.824c-0.634,0.533-1.283,1-1.95,1.4s-1.417,0.734-2.25,1c-0.833,0.268-1.784,0.467-2.851,0.6
		c-1.066,0.135-2.316,0.201-3.75,0.201h-4.1v11.6h-9.05V528.316z M1078.928,545.416h3.85c0.434,0,0.992-0.025,1.676-0.074
		c0.683-0.051,1.332-0.209,1.949-0.477c0.617-0.266,1.15-0.707,1.601-1.324s0.675-1.475,0.675-2.574
		c0-1.102-0.233-1.941-0.699-2.525c-0.468-0.584-1.025-1.008-1.676-1.275c-0.65-0.266-1.334-0.426-2.05-0.475
		c-0.718-0.051-1.325-0.076-1.825-0.076h-3.5V545.416z"/>
	<path d="M1101.678,528.316h20.549v8.299h-11.5v5.75h11.15v8.301h-11.15v6.35h11.5v8.301h-20.549V528.316z"/>
	<path d="M1164.777,551.467c-0.533,2.199-1.393,4.191-2.575,5.975c-1.184,1.783-2.593,3.309-4.226,4.574
		c-1.633,1.268-3.467,2.25-5.5,2.951c-2.033,0.699-4.166,1.049-6.399,1.049c-2.899,0-5.55-0.533-7.95-1.6s-4.449-2.492-6.15-4.275
		c-1.699-1.783-3.024-3.832-3.975-6.15c-0.949-2.316-1.425-4.725-1.425-7.225c0-2.365,0.441-4.691,1.325-6.975
		c0.883-2.283,2.158-4.324,3.824-6.125c1.667-1.801,3.701-3.258,6.101-4.375s5.116-1.676,8.149-1.676c2.9,0,5.467,0.5,7.701,1.5
		c2.232,1,4.125,2.234,5.674,3.701c1.551,1.467,2.775,3.066,3.676,4.799c0.9,1.734,1.482,3.318,1.75,4.75h-9.9
		c-0.268-0.699-0.643-1.424-1.125-2.174c-0.483-0.75-1.092-1.441-1.824-2.076c-0.734-0.633-1.601-1.156-2.601-1.574
		c-1-0.416-2.134-0.625-3.399-0.625c-1.601,0-3.01,0.316-4.226,0.949c-1.218,0.635-2.25,1.459-3.101,2.477
		c-0.85,1.016-1.492,2.174-1.924,3.475c-0.434,1.299-0.65,2.6-0.65,3.9c0,1.398,0.232,2.758,0.699,4.074s1.125,2.492,1.976,3.525
		s1.892,1.857,3.125,2.475s2.616,0.926,4.149,0.926c1.467,0,2.733-0.268,3.801-0.801c1.066-0.533,1.949-1.15,2.65-1.85
		c0.699-0.701,1.24-1.393,1.625-2.076c0.383-0.682,0.657-1.191,0.824-1.523H1164.777z"/>
	<path d="M1169.676,528.316h9.45v37h-9.45V528.316z"/>
	<path d="M1195.026,559.967l-1.95,5.35h-10.149l14.85-37h7.45l14.7,37h-10.25l-1.8-5.35H1195.026z M1197.627,552.467h7.75
		l-3.801-12.65h-0.05h-0.1L1197.627,552.467z"/>
	<path d="M1226.926,536.615h-7.299v-8.299h24v8.299h-7.25v28.701h-9.451V536.615z"/>
	<path d="M1247.426,528.316h9.45v37h-9.45V528.316z"/>
	<path d="M1263.426,539.365c0.5-1.199,1.232-2.482,2.2-3.85c0.966-1.365,2.191-2.641,3.675-3.824
		c1.482-1.184,3.232-2.158,5.25-2.926c2.017-0.766,4.325-1.15,6.926-1.15c2.832,0,5.449,0.518,7.85,1.551s4.467,2.426,6.199,4.176
		c1.733,1.75,3.084,3.791,4.051,6.125c0.967,2.332,1.449,4.783,1.449,7.35s-0.482,5.018-1.449,7.35
		c-0.967,2.334-2.317,4.375-4.051,6.125c-1.732,1.75-3.799,3.143-6.199,4.176c-2.4,1.031-5.033,1.549-7.9,1.549
		c-2.9,0-5.55-0.533-7.949-1.6c-2.4-1.066-4.451-2.475-6.15-4.225c-1.7-1.75-3.018-3.75-3.95-6c-0.934-2.25-1.399-4.559-1.399-6.926
		c0-1.232,0.1-2.516,0.299-3.85C1262.477,542.084,1262.859,540.732,1263.426,539.365z M1271.426,546.717
		c0,1.434,0.232,2.809,0.7,4.125c0.466,1.316,1.142,2.482,2.024,3.5c0.883,1.016,1.951,1.832,3.201,2.449s2.674,0.926,4.274,0.926
		c1.667,0,3.125-0.342,4.375-1.025s2.282-1.559,3.101-2.625c0.816-1.066,1.432-2.232,1.85-3.5c0.416-1.268,0.625-2.5,0.625-3.701
		c0-1.199-0.209-2.441-0.625-3.725c-0.418-1.283-1.033-2.467-1.85-3.549c-0.818-1.084-1.859-1.967-3.125-2.65
		c-1.268-0.684-2.75-1.025-4.451-1.025c-1.633,0-3.083,0.316-4.35,0.949c-1.268,0.635-2.324,1.469-3.175,2.5
		c-0.851,1.035-1.492,2.193-1.925,3.477C1271.643,544.125,1271.426,545.416,1271.426,546.717z"/>
	<path d="M1306.126,528.316h8.149l14.301,23.25l0.1-0.1l-0.4-23.15h9.051v37h-8.2l-14.101-22.5l-0.1,0.049l0.25,22.451h-9.05
		V528.316z"/>
</g>
<polygon points="1476.076,71.77 1396.223,25.669 1396.223,50.771 44.37,50.771 44.37,92.77 1396.223,92.77 1396.223,117.872 "/>
<g>
	<path fill="#FFFFFF" d="M56.496,63.533h-5.11v-5.81h16.8v5.81h-5.075v20.09h-6.615V63.533z"/>
	<path fill="#FFFFFF" d="M70.846,57.723h6.615v25.9h-6.615V57.723z"/>
	<path fill="#FFFFFF" d="M82.151,57.723h8.505l5.145,17.045h0.07l5.075-17.045h8.54v25.9h-6.09l0.21-19.39l-0.07-0.07l-5.53,19.46
		h-4.375l-5.53-19.46l-0.07,0.07l0.21,19.39h-6.09V57.723z"/>
	<path fill="#FFFFFF" d="M114.176,57.723h14.385v5.81h-8.05v4.025h7.805v5.81h-7.805v4.445h8.05v5.81h-14.385V57.723z"/>
</g>
<g>
	<path d="M929.096,126.49l2.969,14.43h0.061l3.27-14.43h4.351l3.21,14.49h0.061l3.029-14.49h5.73l-5.881,22.2h-4.979l-3.33-14.37
		h-0.06l-3.33,14.37h-5.131l-5.729-22.2H929.096z"/>
	<path d="M954.295,126.49h5.67v22.2h-5.67V126.49z"/>
	<path d="M966.654,131.47h-4.38v-4.98h14.4v4.98h-4.351v17.22h-5.67V131.47z"/>
	<path d="M978.954,126.49h5.671v8.34h7.26v-8.34h5.67v22.2h-5.67v-8.88h-7.26v8.88h-5.671V126.49z"/>
	<path d="M1001.574,126.49h5.67v22.2h-5.67V126.49z"/>
	<path d="M1011.264,126.49h4.891l8.58,13.95l0.061-0.06l-0.24-13.89h5.43v22.2h-4.92l-8.46-13.5l-0.06,0.03l0.149,13.47h-5.431
		V126.49z"/>
	<path d="M882.355,162.49h7.26c1.02,0,1.895,0.04,2.625,0.12s1.359,0.19,1.891,0.33c0.529,0.141,0.975,0.311,1.334,0.51
		c0.36,0.2,0.69,0.42,0.99,0.66c0.88,0.72,1.535,1.596,1.965,2.625c0.43,1.03,0.646,2.115,0.646,3.255
		c0,0.561-0.056,1.125-0.165,1.695c-0.11,0.57-0.27,1.11-0.48,1.62c-0.209,0.51-0.455,0.979-0.734,1.41
		c-0.281,0.43-0.6,0.795-0.961,1.095c-0.379,0.32-0.77,0.6-1.17,0.84s-0.85,0.44-1.35,0.6c-0.5,0.161-1.07,0.28-1.71,0.36
		s-1.39,0.12-2.25,0.12h-2.46v6.96h-5.43V162.49z M887.785,172.75h2.311c0.26,0,0.594-0.015,1.004-0.045
		c0.41-0.029,0.801-0.124,1.17-0.284c0.371-0.16,0.691-0.425,0.961-0.796c0.27-0.369,0.404-0.885,0.404-1.545
		c0-0.659-0.14-1.164-0.42-1.515c-0.279-0.35-0.615-0.604-1.004-0.765c-0.391-0.16-0.801-0.255-1.23-0.285
		c-0.431-0.03-0.795-0.045-1.096-0.045h-2.1V172.75z"/>
	<path d="M901.345,169.12c0.3-0.72,0.739-1.489,1.32-2.31c0.579-0.82,1.314-1.585,2.204-2.295c0.891-0.71,1.94-1.295,3.15-1.755
		s2.596-0.69,4.155-0.69c1.7,0,3.271,0.311,4.71,0.93c1.439,0.62,2.68,1.455,3.721,2.506c1.039,1.05,1.85,2.274,2.43,3.675
		s0.869,2.87,0.869,4.41s-0.289,3.01-0.869,4.409c-0.58,1.4-1.391,2.625-2.43,3.676c-1.041,1.05-2.281,1.885-3.721,2.505
		c-1.439,0.619-3.02,0.93-4.74,0.93c-1.74,0-3.33-0.32-4.77-0.96c-1.44-0.64-2.67-1.485-3.69-2.535c-1.02-1.05-1.81-2.25-2.37-3.6
		c-0.56-1.351-0.84-2.735-0.84-4.155c0-0.739,0.061-1.51,0.18-2.31C900.775,170.751,901.004,169.94,901.345,169.12z M906.145,173.53
		c0,0.86,0.141,1.686,0.42,2.476c0.28,0.79,0.686,1.489,1.215,2.1c0.53,0.61,1.17,1.101,1.92,1.47
		c0.75,0.37,1.605,0.556,2.565,0.556c1,0,1.875-0.205,2.625-0.615s1.37-0.935,1.86-1.575c0.49-0.64,0.859-1.34,1.109-2.1
		s0.375-1.5,0.375-2.221c0-0.72-0.125-1.465-0.375-2.234s-0.619-1.48-1.109-2.13c-0.49-0.65-1.115-1.181-1.875-1.591
		c-0.761-0.409-1.65-0.614-2.67-0.614c-0.98,0-1.851,0.19-2.61,0.569c-0.761,0.381-1.396,0.881-1.905,1.5
		c-0.51,0.62-0.895,1.315-1.154,2.085C906.274,171.976,906.145,172.75,906.145,173.53z"/>
	<path d="M926.965,162.49h7.26c1.02,0,1.895,0.04,2.625,0.12s1.359,0.19,1.891,0.33c0.529,0.141,0.975,0.311,1.334,0.51
		c0.36,0.2,0.69,0.42,0.99,0.66c0.88,0.72,1.535,1.596,1.965,2.625c0.43,1.03,0.646,2.115,0.646,3.255
		c0,0.561-0.056,1.125-0.165,1.695c-0.11,0.57-0.27,1.11-0.48,1.62c-0.209,0.51-0.455,0.979-0.734,1.41
		c-0.281,0.43-0.6,0.795-0.961,1.095c-0.379,0.32-0.77,0.6-1.17,0.84s-0.85,0.44-1.35,0.6c-0.5,0.161-1.07,0.28-1.71,0.36
		s-1.39,0.12-2.25,0.12h-2.46v6.96h-5.43V162.49z M932.395,172.75h2.311c0.26,0,0.594-0.015,1.004-0.045
		c0.41-0.029,0.801-0.124,1.17-0.284c0.371-0.16,0.691-0.425,0.961-0.796c0.27-0.369,0.404-0.885,0.404-1.545
		c0-0.659-0.14-1.164-0.42-1.515c-0.279-0.35-0.615-0.604-1.004-0.765c-0.391-0.16-0.801-0.255-1.23-0.285
		c-0.431-0.03-0.795-0.045-1.096-0.045h-2.1V172.75z"/>
	<path d="M951.654,162.49v13.41c0,0.38,0.02,0.815,0.061,1.305c0.039,0.49,0.149,0.95,0.329,1.38
		c0.181,0.431,0.466,0.796,0.855,1.096s0.935,0.45,1.635,0.45s1.239-0.136,1.62-0.405c0.379-0.271,0.66-0.615,0.84-1.035
		s0.285-0.88,0.314-1.38c0.031-0.5,0.045-0.97,0.045-1.41v-13.41h5.671v13.41c0,0.94-0.05,1.755-0.15,2.445
		c-0.101,0.689-0.245,1.295-0.435,1.814c-0.19,0.521-0.42,0.985-0.69,1.396s-0.585,0.795-0.944,1.154
		c-0.721,0.74-1.59,1.325-2.61,1.756c-1.021,0.43-2.22,0.645-3.601,0.645c-0.4,0-0.875-0.03-1.425-0.09
		c-0.55-0.061-1.114-0.176-1.694-0.345c-0.58-0.17-1.155-0.41-1.726-0.721c-0.569-0.31-1.085-0.715-1.545-1.215
		c-0.46-0.499-0.835-0.984-1.125-1.455c-0.29-0.47-0.515-0.965-0.675-1.484c-0.16-0.521-0.27-1.096-0.33-1.726
		s-0.09-1.354-0.09-2.175v-13.41H951.654z"/>
	<path d="M967.135,162.49h5.67v17.22h6.569v4.98h-12.239V162.49z"/>
	<path d="M987.113,181.48l-1.17,3.21h-6.09l8.91-22.2h4.471l8.82,22.2h-6.15l-1.08-3.21H987.113z M988.674,176.98h4.65l-2.28-7.59
		h-0.03h-0.06L988.674,176.98z"/>
	<path d="M1006.254,167.471h-4.381v-4.98h14.4v4.98h-4.35v17.22h-5.67V167.471z"/>
	<path d="M1018.553,162.49h5.671v22.2h-5.671V162.49z"/>
	<path d="M1028.153,169.12c0.3-0.72,0.739-1.489,1.32-2.31c0.579-0.82,1.314-1.585,2.204-2.295c0.891-0.71,1.94-1.295,3.15-1.755
		s2.596-0.69,4.155-0.69c1.7,0,3.271,0.311,4.71,0.93c1.439,0.62,2.68,1.455,3.721,2.506c1.039,1.05,1.85,2.274,2.43,3.675
		s0.869,2.87,0.869,4.41s-0.289,3.01-0.869,4.409c-0.58,1.4-1.391,2.625-2.43,3.676c-1.041,1.05-2.281,1.885-3.721,2.505
		c-1.439,0.619-3.02,0.93-4.74,0.93c-1.74,0-3.33-0.32-4.77-0.96c-1.44-0.64-2.67-1.485-3.69-2.535c-1.02-1.05-1.81-2.25-2.37-3.6
		c-0.56-1.351-0.84-2.735-0.84-4.155c0-0.739,0.061-1.51,0.18-2.31C1027.584,170.751,1027.812,169.94,1028.153,169.12z
		 M1032.953,173.53c0,0.86,0.141,1.686,0.42,2.476c0.28,0.79,0.686,1.489,1.215,2.1c0.53,0.61,1.17,1.101,1.92,1.47
		c0.75,0.37,1.605,0.556,2.565,0.556c1,0,1.875-0.205,2.625-0.615s1.37-0.935,1.86-1.575c0.49-0.64,0.859-1.34,1.109-2.1
		s0.375-1.5,0.375-2.221c0-0.72-0.125-1.465-0.375-2.234s-0.619-1.48-1.109-2.13c-0.49-0.65-1.115-1.181-1.875-1.591
		c-0.761-0.409-1.65-0.614-2.67-0.614c-0.98,0-1.851,0.19-2.61,0.569c-0.761,0.381-1.396,0.881-1.905,1.5
		c-0.51,0.62-0.895,1.315-1.154,2.085C1033.083,171.976,1032.953,172.75,1032.953,173.53z"/>
	<path d="M1053.773,162.49h4.89l8.58,13.95l0.06-0.06l-0.24-13.891h5.431v22.2h-4.92l-8.46-13.5l-0.061,0.03l0.15,13.47h-5.43
		V162.49z"/>
</g>
<polygon points="798.517,295.604 809.342,264.606 815.176,271.378 897.652,200.312 907.414,211.642 824.936,282.706 
	830.768,289.481 "/>
<g>
</g>
<g>
</g>
<g>
</g>
<g>
</g>
<g>
</g>
<g>
</g>
</svg>
